<svg width="36" height="27" viewBox="0 0 36 27" fill="none" xmlns="http://www.w3.org/2000/svg">
<g clip-path="url(#clip0_8_375)">
<path d="M9.27002 16.1C9.27002 19.17 9.27002 22.25 9.27002 25.32C9.27002 25.93 9.46002 26.78 8.51002 26.79C7.59002 26.79 7.69002 25.98 7.69002 25.35C7.69002 19.11 7.71002 12.87 7.72002 6.64C7.72002 5.22 7.53002 5.11 6.25002 5.78C4.78002 6.55 3.25002 7.13 1.59002 7.27C0.910024 7.33 0.110024 7.41 0.0100241 6.43C-0.079976 5.47 0.720024 5.5 1.33002 5.44C2.53002 5.33 3.67002 5.03 4.75002 4.53C6.25002 3.83 7.17002 2.63 7.60002 1.03C7.73002 0.53 7.90002 0 8.53002 0C9.14002 0 9.40002 0.48 9.52002 0.98C10.22 3.99 12.51 4.89 15.17 5.37C15.9 5.5 17.27 5.13 17.05 6.51C16.86 7.72 15.69 7.27 14.88 7.17C13.47 7 12.11 6.62 10.92 5.77C10.56 5.51 10.19 5.11 9.70002 5.38C9.17002 5.68 9.29002 6.26 9.29002 6.75C9.28002 9.87 9.29002 12.99 9.29002 16.11L9.27002 16.1Z" fill="#F2E8D9"/>
<path d="M27.94 16.1C27.94 19.17 27.94 22.25 27.94 25.32C27.94 25.93 28.13 26.78 27.18 26.79C26.26 26.79 26.36 25.98 26.36 25.35C26.36 19.11 26.38 12.87 26.39 6.64C26.39 5.22 26.2 5.11 24.92 5.78C23.45 6.55 21.92 7.13 20.26 7.27C19.58 7.33 18.78 7.41 18.68 6.43C18.59 5.47 19.39 5.5 20 5.44C21.2 5.33 22.34 5.03 23.42 4.53C24.92 3.83 25.84 2.63 26.27 1.03C26.4 0.53 26.56 0 27.19 0C27.8 0 28.06 0.48 28.18 0.98C28.88 3.99 31.17 4.89 33.83 5.37C34.56 5.5 35.93 5.13 35.71 6.51C35.52 7.72 34.35 7.27 33.54 7.17C32.13 7 30.77 6.62 29.58 5.77C29.22 5.51 28.85 5.11 28.36 5.38C27.83 5.68 27.95 6.26 27.95 6.75C27.94 9.87 27.95 12.99 27.95 16.11L27.94 16.1Z" fill="#F2E8D9"/>
</g>
<defs>
<clipPath id="clip0_8_375">
<rect width="35.74" height="26.79" fill="white"/>
</clipPath>
</defs>
</svg>
