<svg width="237" height="66" viewBox="0 0 237 66" fill="none" xmlns="http://www.w3.org/2000/svg">
<g clip-path="url(#clip0_5_196)">
<path d="M67.447 33.1856H53.9208V2.19586H68.6125C69.8394 2.19586 70.9743 2.25772 72.0478 2.41236C73.0906 2.567 74.1334 2.81442 75.0843 3.15462C76.0658 3.49483 76.8939 3.95875 77.5687 4.48452C78.2434 5.01029 78.7955 5.72163 79.1943 6.55669C79.593 7.42267 79.8077 8.38143 79.8077 9.4639C79.8077 11.3196 79.0716 12.7732 77.5993 13.8247C76.1271 14.8763 73.7347 15.4948 70.4528 15.6185V16.1443C74.7162 15.8969 77.8754 16.4536 79.869 17.8144C81.8627 19.1752 82.8749 21.1546 82.8749 23.8144C82.8749 25.0206 82.6908 26.1031 82.2921 27.0309C81.924 27.9897 81.4333 28.7938 80.8199 29.4433C80.2371 30.0928 79.4703 30.6495 78.5808 31.1134C77.6914 31.5773 76.8019 31.9484 75.9431 32.1959C75.0843 32.4433 74.1028 32.6598 72.9986 32.8144C71.8944 32.9691 70.9436 33.0618 70.1155 33.0928C69.2873 33.1237 68.3672 33.1546 67.3857 33.1546L67.447 33.1856ZM64.3492 9.74225V14.2886H66.8642C68.1831 14.2886 69.1953 14.1031 69.8394 13.7629C70.4835 13.3917 70.8209 12.8041 70.8209 12C70.8209 11.1959 70.5142 10.6082 69.8701 10.268C69.226 9.92782 68.2138 9.77318 66.8642 9.77318H64.3492V9.74225ZM64.3492 19.4227V24.3402H68.0298C69.7167 24.3402 70.8822 24.1237 71.557 23.6907C72.2318 23.2577 72.5999 22.6082 72.5999 21.8041C72.5999 20.2268 71.281 19.4536 68.6739 19.4536H64.3492V19.4227Z" fill="#2D160D"/>
<path d="M103.149 33.7423C105.756 33.7423 107.78 32.7835 109.16 30.8969C110.571 29.0103 111.246 25.9794 111.246 21.7732V6.64948H100.971V16.0825C100.971 16.7938 100.971 17.3814 100.971 17.8454C100.971 18.3093 100.91 18.835 100.848 19.4227C100.787 20.0103 100.695 20.4742 100.542 20.8454C100.388 21.2165 100.235 21.5567 100.02 21.8969C99.8056 22.2371 99.4989 22.4845 99.1615 22.6392C98.7935 22.7938 98.3947 22.8866 97.904 22.8866C97.5053 22.8866 97.1679 22.8557 96.8612 22.7319C96.5851 22.6392 96.2784 22.4227 95.941 22.0515C95.6036 21.6804 95.3582 21.2165 95.1742 20.5979C94.9902 19.9794 94.8062 19.1134 94.6835 18C94.5608 16.8866 94.4688 15.5258 94.4688 13.9794V6.6804H84.1938V33.2474H94.6221L92.9352 18.1546H93.3953C93.702 21.0928 94.07 23.5051 94.5301 25.4536C94.9902 27.3711 95.6036 28.9794 96.3704 30.2474C97.1372 31.5155 98.0574 32.4433 99.1309 32.9691C100.204 33.4948 101.523 33.7732 103.088 33.7732L103.149 33.7423Z" fill="#2D160D"/>
<path d="M127.134 33.7423C124.926 33.7423 122.901 33.3711 121.061 32.6598C119.221 31.9485 117.687 30.9588 116.43 29.7217C115.203 28.4845 114.221 27 113.547 25.3299C112.872 23.6289 112.534 21.8351 112.534 19.8866C112.534 17.9382 112.872 16.2062 113.577 14.5361C114.252 12.866 115.233 11.4124 116.46 10.1443C117.687 8.90722 119.221 7.91753 121.061 7.20619C122.901 6.49485 124.926 6.12372 127.134 6.12372C128.821 6.12372 130.385 6.37114 131.858 6.83506C133.33 7.3299 134.465 7.85568 135.293 8.44331V19.299H134.741C132.072 17.0103 129.526 15.8969 127.042 15.8969C126.459 15.8969 125.907 15.9588 125.355 16.1134C124.803 16.268 124.312 16.4845 123.852 16.7938C123.392 17.1031 122.993 17.5052 122.717 18.0619C122.441 18.6186 122.288 19.2371 122.288 19.9485C122.288 20.9072 122.533 21.7113 123.024 22.3299C123.515 22.9794 124.128 23.4124 124.803 23.6598C125.478 23.9072 126.214 24.0309 127.011 24.0309C129.496 24.0309 132.042 22.8866 134.71 20.6289H135.262V31.4845C134.434 32.0722 133.299 32.5979 131.827 33.0928C130.355 33.5567 128.79 33.8041 127.103 33.8041L127.134 33.7423Z" fill="#2D160D"/>
<path d="M164.952 32.4433V33.1856H153.634L149.402 22.732L147.377 24.9278V33.1546H147.347V65.4124H136.98V32.2268H137.01V0H147.408L145.966 20.1031H146.396C146.672 18.1546 147.101 16.3608 147.653 14.7217C148.206 13.0825 148.758 11.7835 149.34 10.8247C149.923 9.86598 150.475 9.06186 151.027 8.38144C151.579 7.70103 152.009 7.23711 152.377 6.98969L152.898 6.61856H164.308V7.36083L156.395 16.1443L164.952 32.4124V32.4433Z" fill="#2D160D"/>
<path d="M176.516 33.7423C174.307 33.7423 172.283 33.3711 170.412 32.6598C168.541 31.9484 166.977 30.9587 165.719 29.7216C164.462 28.4845 163.449 27 162.744 25.299C162.038 23.5979 161.67 21.7732 161.67 19.8557C161.67 17.9381 162.008 16.1752 162.652 14.5051C163.296 12.8041 164.216 11.3505 165.382 10.1134C166.547 8.87628 167.989 7.88659 169.706 7.17525C171.424 6.46391 173.264 6.09277 175.258 6.09277C176.945 6.09277 178.54 6.3402 180.043 6.83504C181.546 7.32989 182.865 8.04123 183.999 8.96906C185.134 9.8969 186.054 11.0722 186.698 12.5258C187.373 13.9794 187.711 15.5876 187.711 17.3505C187.711 18.3093 187.588 19.4227 187.373 20.6907L171.117 19.9484C171.271 21.4021 171.945 22.4845 173.111 23.1649C174.276 23.8453 175.749 24.2165 177.497 24.2165C180.687 24.2165 183.509 23.3505 185.932 21.5876H186.514V31.3917C185.41 32.0722 183.999 32.6289 182.251 33.0618C180.503 33.4948 178.601 33.7113 176.546 33.7113L176.516 33.7423ZM171.455 17.567L178.877 17.1649C178.663 16.5155 178.264 15.9897 177.65 15.5876C177.037 15.2165 176.301 15 175.442 15C174.583 15 173.786 15.2165 173.08 15.6495C172.375 16.0825 171.823 16.701 171.485 17.5361L171.455 17.567Z" fill="#2D160D"/>
<path d="M205.071 23.4124C204.58 24.1546 203.997 24.5258 203.292 24.5258C202.464 24.5258 201.912 24.2474 201.574 23.7216C201.237 23.1959 201.083 22.4227 201.083 21.4639V2.19586H193.293C193.293 3.92782 192.863 5.16493 192.005 5.87627C191.146 6.58761 189.796 6.95875 187.956 6.95875V12.8969H190.747V24.7113C190.747 27.433 191.483 29.6288 192.986 31.268C194.458 32.9072 196.544 33.7423 199.212 33.7423C201.881 33.7423 204.028 33 205.623 31.5154V23.4124H205.101H205.071Z" fill="#2D160D"/>
<path d="M224.179 33.7423C220.192 33.7423 216.665 32.9691 213.598 31.4227V20.6907H214.272C217.063 23.5051 220.468 24.8969 224.486 24.8969C225.283 24.8969 225.928 24.8041 226.388 24.6495C226.848 24.4639 227.093 24.2474 227.093 23.9381C227.093 23.7216 226.878 23.567 226.48 23.4433C226.081 23.3196 225.56 23.1959 224.915 23.1031C224.271 23.0103 223.535 22.8866 222.707 22.7319C221.879 22.5773 221.02 22.3917 220.161 22.1752C219.302 21.9588 218.444 21.6495 217.616 21.2474C216.787 20.8144 216.051 20.3505 215.407 19.7938C214.763 19.2371 214.242 18.5258 213.843 17.6289C213.444 16.7319 213.229 15.7113 213.229 14.567C213.229 13.1752 213.567 11.9381 214.211 10.8247C214.855 9.71133 215.745 8.84535 216.849 8.16494C217.953 7.48453 219.18 6.98968 220.56 6.61855C221.94 6.27834 223.412 6.09277 224.977 6.09277C228.719 6.09277 232.215 6.98968 235.528 8.75257V18.1856H234.945C233.657 17.0412 232.062 16.1443 230.191 15.4639C228.32 14.7835 226.388 14.4433 224.455 14.4433C222.523 14.4433 221.695 14.7835 221.695 15.4948C221.695 15.7732 221.971 15.9897 222.554 16.1752C223.106 16.3608 223.842 16.5155 224.762 16.6392C225.652 16.7629 226.664 16.9175 227.737 17.1031C228.841 17.2887 229.915 17.5361 231.019 17.9072C232.123 18.2783 233.105 18.7113 233.994 19.2371C234.884 19.7629 235.62 20.4742 236.203 21.4021C236.755 22.3299 237.061 23.4124 237.061 24.6185C237.061 26.6907 236.509 28.4227 235.374 29.8144C234.24 31.2062 232.737 32.1959 230.866 32.8144C228.995 33.433 226.786 33.7423 224.241 33.7423H224.179Z" fill="#2D160D"/>
<path d="M214.088 5.13403C212.984 7.70104 211.849 10.2371 210.745 12.8041C208.659 12.8041 206.574 12.8041 204.519 12.7732V5.07217C207.709 5.07217 210.898 5.1031 214.088 5.13403Z" fill="#2D160D"/>
<path d="M11.3178 49.0206C11.7779 48.7114 12.2993 48.4949 12.8208 48.3402C13.3422 48.1856 13.8943 48.1237 14.477 48.1237C16.9614 48.1237 19.5072 49.2681 22.1756 51.5258H22.7277V40.6701C21.8996 40.0825 20.7341 39.5567 19.2925 39.0619C17.8202 38.567 16.256 38.3505 14.569 38.3505C12.3607 38.3505 10.3364 38.7217 8.49605 39.433C6.65575 40.1443 5.12217 41.134 3.8953 42.3711C2.66844 43.6083 1.71762 45.0619 1.01217 46.732C0.33739 48.4021 -0.0306702 50.1959 -0.0306702 52.0825C-0.0306702 53.9691 0.306718 55.8557 0.981495 57.5258C1.65627 59.2268 2.60709 60.6804 3.86463 61.9175C5.0915 63.1546 6.65575 64.1443 8.49605 64.8557C10.3364 65.567 12.3607 65.9382 14.569 65.9382C16.256 65.9382 17.8202 65.6907 19.2925 65.2268C20.7647 64.7629 21.8996 64.2062 22.7277 63.6186V52.7629H22.1756C19.5072 55.0516 16.9614 56.165 14.477 56.165C13.6796 56.165 12.9434 56.0412 12.2687 55.7938C11.5939 55.5464 11.0111 55.1134 10.4897 54.4639C9.99897 53.8144 9.75359 53.0103 9.75359 52.0825C9.75359 51.3711 9.90695 50.7217 10.183 50.1959C10.459 49.6701 10.8578 49.2371 11.3178 48.9278V49.0206Z" fill="#2D160D"/>
<path d="M49.4427 41.1959C48.0318 39.3093 46.0382 38.3814 43.4311 38.3814C40.3639 38.3814 38.1249 39.5258 36.714 41.8454C35.3031 44.1649 34.2909 48.2165 33.6775 54H33.2481C33.7695 47.7835 34.2602 41.5361 34.7817 35.3196C31.3464 35.3505 27.9419 35.3814 24.5067 35.4124V65.4433H34.7817V59.9381C34.7817 58.7629 34.7817 57.7423 34.8123 56.9072C34.8123 56.0722 34.9044 55.2062 34.9964 54.3402C35.0884 53.4742 35.2111 52.732 35.3644 52.1753C35.5485 51.5876 35.7632 51.0618 36.0392 50.5979C36.3152 50.134 36.6526 49.7938 37.0514 49.5464C37.4501 49.299 37.9102 49.2062 38.4623 49.2062C38.8917 49.2062 39.2597 49.299 39.5971 49.4536C39.9345 49.6082 40.1799 49.8557 40.3946 50.1959C40.5786 50.5361 40.7626 50.8763 40.8853 51.2474C41.008 51.6185 41.1 52.0825 41.1614 52.6701C41.2227 53.2577 41.2534 53.7835 41.2841 54.2474C41.2841 54.7113 41.2841 55.299 41.2841 56.0103V65.4433H51.5591V50.3196C51.5591 46.1134 50.8536 43.0825 49.4734 41.1959H49.4427Z" fill="#2D160D"/>
<path d="M80.9732 46.8557C80.2678 45.1546 79.3169 43.701 78.0594 42.433C76.8019 41.1959 75.2683 40.2062 73.428 39.4639C71.5877 38.7217 69.594 38.3505 67.447 38.3505C65.6987 38.3505 64.0425 38.5979 62.5089 39.0619C60.9753 39.5258 59.5951 40.1753 58.4295 41.0412C57.264 41.9072 56.2518 42.8969 55.393 44.0412C54.5342 45.1856 53.9208 46.4536 53.4607 47.8454C53.0313 49.2371 52.8166 50.6907 52.8166 52.2062C52.8166 54.0928 53.154 55.8866 53.8595 57.5567C54.5342 59.2268 55.5157 60.6804 56.7426 61.9485C58.0001 63.1856 59.5337 64.1753 61.374 64.8866C63.2143 65.5979 65.2386 65.9691 67.447 65.9691C69.6554 65.9691 71.6797 65.5979 73.52 64.8866C75.3603 64.1753 76.8939 63.1856 78.1208 61.9485C79.3476 60.7114 80.2984 59.2268 80.9732 57.5567C81.648 55.8866 81.9854 54.0928 81.9854 52.2062C81.9854 50.3196 81.6173 48.5258 80.9425 46.8248L80.9732 46.8557ZM71.3423 55.2371C70.3301 55.9175 69.0419 56.2577 67.447 56.2577C65.8521 56.2577 64.5639 55.9175 63.5824 55.2371C62.6009 54.5567 62.1101 53.567 62.1101 52.2371C62.1101 50.9072 62.6009 49.9175 63.6131 49.2062C64.6252 48.5258 65.8828 48.1856 67.447 48.1856C69.0113 48.1856 70.3301 48.5258 71.3423 49.2062C72.3545 49.8866 72.8452 50.9072 72.8452 52.2371C72.8452 53.567 72.3545 54.5567 71.3423 55.2371Z" fill="#2D160D"/>
<path d="M94.1927 49.0206C94.6528 48.7114 95.1742 48.4949 95.6956 48.3402C96.2171 48.1856 96.7998 48.1237 97.3826 48.1237C99.867 48.1237 102.413 49.2681 105.081 51.5258H105.633V40.6701C104.805 40.0825 103.67 39.5567 102.198 39.0619C100.726 38.567 99.1615 38.3505 97.4746 38.3505C95.2662 38.3505 93.2419 38.7217 91.4016 39.433C89.5613 40.1443 88.0277 41.134 86.8008 42.3711C85.574 43.6083 84.6232 45.0619 83.9177 46.732C83.2429 48.4021 82.8749 50.1959 82.8749 52.0825C82.8749 53.9691 83.2123 55.8557 83.887 57.5258C84.5618 59.2268 85.5126 60.6804 86.7702 61.9175C87.997 63.1546 89.5613 64.1443 91.4016 64.8557C93.2419 65.567 95.2662 65.9382 97.4746 65.9382C99.1615 65.9382 100.756 65.6907 102.229 65.2268C103.701 64.7629 104.836 64.2062 105.664 63.6186V52.7629H105.112C102.443 55.0516 99.8977 56.165 97.4132 56.165C96.6158 56.165 95.8797 56.0412 95.2049 55.7938C94.5301 55.5464 93.9473 55.1134 93.4259 54.4639C92.9352 53.8144 92.6898 53.0103 92.6898 52.0825C92.6898 51.3711 92.8432 50.7217 93.1192 50.1959C93.3953 49.6701 93.794 49.2371 94.2541 48.9278L94.1927 49.0206Z" fill="#2D160D"/>
<path d="M134.649 46.8557C133.943 45.1546 132.992 43.701 131.735 42.433C130.477 41.1959 128.944 40.2062 127.103 39.4639C125.263 38.7217 123.269 38.3505 121.122 38.3505C119.374 38.3505 117.718 38.5979 116.154 39.0619C114.62 39.5258 113.24 40.1753 112.074 41.0412C110.909 41.9072 109.897 42.8969 109.038 44.0412C108.21 45.1856 107.566 46.4536 107.136 47.8454C106.707 49.2371 106.492 50.6907 106.492 52.2062C106.492 54.0928 106.829 55.8866 107.535 57.5567C108.21 59.2268 109.191 60.6804 110.418 61.9485C111.676 63.1856 113.209 64.1753 115.049 64.8866C116.89 65.5979 118.914 65.9691 121.122 65.9691C123.331 65.9691 125.355 65.5979 127.195 64.8866C129.036 64.1753 130.569 63.1856 131.796 61.9485C133.023 60.7114 133.974 59.2268 134.649 57.5567C135.323 55.8866 135.661 54.0928 135.661 52.2062C135.661 50.3196 135.293 48.5258 134.618 46.8248L134.649 46.8557ZM125.018 55.2371C124.006 55.9175 122.717 56.2577 121.122 56.2577C119.528 56.2577 118.239 55.9175 117.258 55.2371C116.276 54.5567 115.786 53.567 115.786 52.2371C115.786 50.9072 116.276 49.9175 117.288 49.2062C118.301 48.5258 119.558 48.1856 121.122 48.1856C122.687 48.1856 124.006 48.5258 125.018 49.2062C126.03 49.8866 126.521 50.9072 126.521 52.2371C126.521 53.567 126.03 54.5567 125.018 55.2371Z" fill="#2D160D"/>
<path d="M172.436 42.1546C174.737 44.6907 175.871 48.1237 175.871 52.4536C175.871 53.0103 175.871 53.5052 175.81 54C175.718 55.4845 175.534 56.7835 175.197 58.3918C174.614 61.299 173.816 63.9278 173.387 65.4124H162.683C162.836 65.134 163.327 64.1443 163.909 62.8763C164.86 60.8041 165.32 59.7835 165.658 58.5773C166.363 55.8866 166.087 53.5979 165.964 52.7938C165.688 50.9381 165.075 49.4845 164.554 48.4949C164.83 49.5773 165.167 51.1856 165.167 53.165C165.167 55.4227 165.198 60.2784 161.824 63.1856C159.983 64.7629 157.836 65.165 157.223 65.2577C156.487 65.3815 155.291 65.5361 153.818 65.165C153.266 65.0103 151.917 64.6392 150.659 63.4639C150.445 63.2474 149.463 62.2887 148.85 60.6495C148.39 59.3815 148.42 58.3299 148.42 57.4021C148.42 54.4021 149.432 52.0206 151.426 50.3196C153.42 48.5876 156.456 47.6907 160.505 47.5361V47.0412L149.8 48.3402H148.972V38.2887H163.173C167.038 38.2887 170.105 39.5567 172.405 42.0928L172.436 42.1546ZM157.162 50.7217C156.242 51.4949 155.812 52.5464 155.812 53.8144C155.812 54.5258 155.965 55.1443 156.334 55.6392C156.671 56.134 157.162 56.3814 157.775 56.3814C158.573 56.3814 159.247 55.9794 159.799 55.2062C160.352 54.433 160.628 53.134 160.628 51.3402V49.3918C159.247 49.5155 158.082 49.9485 157.192 50.7526L157.162 50.7217Z" fill="#2D160D"/>
<path d="M193.814 45.7732V38.8144H189.306V34.4536H181.515C181.515 36.1546 181.086 37.3918 180.227 38.0722C179.368 38.7835 178.018 39.1237 176.178 39.1237V44.9381H179V56.567C179 59.2577 179.736 61.3918 181.239 63.0309C182.742 64.6392 184.797 65.4742 187.465 65.4742C190.134 65.4742 192.281 64.732 193.876 63.2784V55.299H193.324C192.833 56.0412 192.25 56.4124 191.545 56.4124C190.716 56.4124 190.164 56.134 189.827 55.6083C189.49 55.0825 189.336 54.3402 189.336 53.3814V45.0619L193.845 45.7732H193.814Z" fill="#2D160D"/>
<path d="M221.726 49.3918C221.726 47.6598 221.388 46.0825 220.713 44.6598C220.039 43.2371 219.149 42.0928 218.014 41.1959C216.879 40.299 215.561 39.5876 214.058 39.0928C212.555 38.5979 210.99 38.3505 209.304 38.3505C207.31 38.3505 205.439 38.6907 203.752 39.4021C202.034 40.1134 200.593 41.0722 199.427 42.2784C198.262 43.4845 197.342 44.9382 196.667 46.5773C196.023 48.2165 195.685 49.9794 195.685 51.8351C195.685 53.6907 196.053 55.5155 196.759 57.1856C197.464 58.8557 198.476 60.3093 199.734 61.5155C200.992 62.7217 202.556 63.6804 204.427 64.3918C206.298 65.1031 208.322 65.4433 210.53 65.4433C212.585 65.4433 214.487 65.2268 216.235 64.7938C217.984 64.3608 219.395 63.8351 220.499 63.1546V53.567H219.916C217.493 55.2681 214.702 56.134 211.481 56.134C209.733 56.134 208.261 55.7938 207.095 55.1134C205.93 54.433 205.255 53.3815 205.102 51.9588L221.357 52.6701C221.572 51.433 221.695 50.3196 221.695 49.3918H221.726ZM205.5 49.5773C205.868 48.7732 206.39 48.1547 207.095 47.7217C207.801 47.2887 208.598 47.1031 209.457 47.1031C210.316 47.1031 211.082 47.2887 211.665 47.6598C212.279 48.0309 212.677 48.5567 212.892 49.2062L205.47 49.5773H205.5Z" fill="#2D160D"/>
<path d="M229.7 64.9485C233.732 64.9485 237 61.6529 237 57.5876C237 53.5224 233.732 50.2268 229.7 50.2268C225.669 50.2268 222.4 53.5224 222.4 57.5876C222.4 61.6529 225.669 64.9485 229.7 64.9485Z" fill="#2D160D"/>
<path d="M44.658 30.866C44.5966 31.0825 44.4433 31.299 44.1672 31.4845C42.879 32.3814 39.2598 32.7835 35.4258 32.9691C31.8986 33.1546 28.1566 33.1237 25.8256 33.1237C23.1878 33.1237 10.9805 33.1237 10.4591 30.8351C10.2137 29.7217 10.5511 28.5773 10.5511 28.5773C10.6431 28.299 10.7658 28.0515 10.8578 27.8351C10.9498 27.6804 11.0111 27.5258 11.1032 27.433C11.3179 27.8041 11.5632 28.1134 11.8086 28.3918C12.5447 29.165 13.4035 29.5979 14.3237 29.5979H16.2253C16.1333 29.0103 16.072 28.4227 15.98 27.8351C15.9186 27.4021 15.8879 26.9691 15.8266 26.567C15.4585 23.5052 15.1825 20.5361 14.9985 17.6289C15.0905 17.6289 15.1825 17.6289 15.3052 17.6289C15.7039 17.6289 16.072 17.6289 16.44 17.5361C18.8324 17.165 20.8567 15.6804 22.145 13.5464C23.0038 12.0928 23.5252 10.3608 23.5252 8.50516C23.5252 8.35052 23.5252 8.16495 23.5252 8.01031C25.7642 7.1134 27.3591 4.73196 27.3591 1.94846C28.0646 1.94846 28.494 1.94846 28.494 1.94846C28.494 1.94846 29.5062 1.97938 30.9477 2.16495C32.9721 2.41237 35.8245 3 38.0022 4.17526C38.5236 4.45361 38.9837 4.76289 39.3824 5.13402C39.3824 5.13402 40.1799 5.87629 40.7013 6.92784C42.0509 9.58763 39.8425 19.2371 39.1371 26.5979C39.1371 26.8454 39.0757 27.1546 39.0451 27.433C38.9837 27.5567 38.9224 27.6804 38.8304 27.8351C38.1556 28.7938 36.9594 28.9175 36.714 28.9485C35.4565 29.0722 34.1376 29.134 32.8187 29.2268C30.1809 29.3505 27.6965 29.3814 25.3041 29.3196C25.2428 29.3196 25.1508 29.3196 25.0894 29.3505C25.0281 29.3814 25.0281 29.4433 24.9974 29.4742C24.9974 29.5979 25.0894 29.7216 25.2121 29.7216C25.7949 29.7526 34.6283 29.7217 35.8245 29.6907C36.622 29.6907 38.6157 29.6289 40.3333 29.5979H40.7627C40.7627 29.5979 40.9774 29.5979 41.0694 29.5979C42.1736 29.4742 43.1857 28.732 43.9832 27.4948C44.1366 27.7113 44.3513 28.0825 44.5353 28.5773C44.5353 28.5773 44.9033 29.7216 44.6273 30.866H44.658Z" fill="#2D160D"/>
</g>
<defs>
<clipPath id="clip0_5_196">
<rect width="237" height="66" fill="white"/>
</clipPath>
</defs>
</svg>
