<svg width="444" height="176" viewBox="0 0 444 176" fill="none" xmlns="http://www.w3.org/2000/svg">
<g clip-path="url(#clip0_20_4)">
<path d="M444 136.079C434.444 146.685 419.231 160.133 397.171 168.46C329.8 193.921 263.56 147.107 258.439 143.365C240.428 135.826 225.989 134.925 216.046 135.544C189.431 137.176 179.874 150.567 152.039 151.214C144.179 151.383 129.413 151.721 114.736 144.153C84.132 128.37 72.1344 87.5205 67.8176 72.8911C66.21 67.3488 63.3818 56.5175 55.4032 43.8012C54.2124 41.9162 48.7942 33.4199 40.2797 25.0925C29.4432 14.458 14.796 5.23028 0 -2H443.375L444 136.079Z" fill="white"/>
</g>
<defs>
<clipPath id="clip0_20_4">
<rect width="444" height="178" fill="white" transform="translate(0 -2)"/>
</clipPath>
</defs>
</svg>
