<svg width="41" height="28" viewBox="0 0 41 28" fill="none" xmlns="http://www.w3.org/2000/svg">
<g clip-path="url(#clip0_5_16)">
<path d="M40.6302 6.80925C40.1449 2.83237 37.903 0.716762 33.9163 0.254334C29.4326 -0.277457 24.9259 0.208092 20.4307 0.196531C15.9239 0.196531 11.4056 -0.0809257 6.94503 0.277456C2.68094 0.624277 0.647118 3.0867 0.300444 7.16763C-0.0693417 11.4451 -0.115565 15.711 0.231109 20C0.566228 24.2081 2.85428 26.5087 7.04904 27.1098C16.0279 28.4046 24.9836 28.2081 33.951 27.0405C37.9608 26.5202 40.3182 24.4277 40.6649 20.4855C41.0578 15.9422 41.1733 11.3642 40.6302 6.80925ZM27.2833 15.9075C23.9436 17.9191 20.5693 19.896 17.091 21.6879C14.9185 22.8092 13.9247 22.0809 13.8207 19.5954C13.7398 17.7919 13.7976 15.9884 13.7976 14.185H13.8207C13.8207 12.2775 13.763 10.3815 13.8323 8.48555C13.9132 6.2659 15.0803 5.53757 17.0448 6.61272C20.4769 8.47399 23.8743 10.4162 27.237 12.4046C29.0282 13.4682 29.0975 14.8208 27.2833 15.9075Z" fill="#1D0702"/>
</g>
<defs>
<clipPath id="clip0_5_16">
<rect width="41" height="28" fill="white"/>
</clipPath>
</defs>
</svg>
