<svg width="26" height="30" viewBox="0 0 26 30" fill="none" xmlns="http://www.w3.org/2000/svg">
<g clip-path="url(#clip0_5_11)">
<path d="M13.5012 11.4214C13.5012 8.52829 13.5012 5.63521 13.5012 2.72954C13.5012 1.54716 13.5631 0.352186 15.0481 0.113193C16.496 -0.113223 18.0305 -0.22643 18.7111 1.50942C19.8125 4.30187 21.1985 6.55344 24.4779 7.29558C26.1114 7.66036 26.2104 9.48426 25.802 10.9811C25.3565 12.6415 23.9705 12.3522 22.7577 12.1635C19.0081 11.5975 19.0205 11.5849 18.8596 15.4339C18.773 17.6981 18.8225 20 18.476 22.239C17.6345 27.5723 14.1076 30.2893 8.74918 29.9874C4.14566 29.7233 0.445515 25.9622 0.037138 21.0943C-0.346489 16.6289 2.72253 12.3145 6.93005 11.4843C8.40268 11.195 10.1971 10.6038 10.7911 12.7295C11.3479 14.6918 11.0262 16.3396 8.57593 16.9937C6.31129 17.5975 5.08616 19.2453 5.71729 21.6855C6.23704 23.6981 7.68492 24.8428 9.81343 24.717C10.8034 24.6541 11.5831 24.3396 12.1399 23.8113C13.031 22.9811 13.1795 21.8113 13.2661 21.0566C13.6745 17.3711 13.5507 12.8176 13.5012 11.4465V11.4214Z" fill="#1D0702"/>
</g>
<defs>
<clipPath id="clip0_5_11">
<rect width="26" height="30" fill="white"/>
</clipPath>
</defs>
</svg>
