<svg width="31" height="30" viewBox="0 0 31 30" fill="none" xmlns="http://www.w3.org/2000/svg">
<g clip-path="url(#clip0_5_5)">
<path d="M16.6611 30C12.9558 29.8244 10.3291 29.6237 7.70244 29.6112C4.09868 29.5987 1.91611 27.755 1.104 24.5192C-0.469479 18.2107 -0.215693 11.7893 0.939035 5.48076C1.49737 2.40802 4.27633 0.652166 7.3979 0.376246C12.7274 -0.100343 18.1077 -0.125427 23.4372 0.33862C27.1552 0.664707 29.3758 2.64631 30.2006 6.23327C31.533 12.0652 30.9239 17.9599 30.2514 23.7918C29.858 27.1781 26.673 29.4105 23.1326 29.6237C20.6202 29.7742 18.095 29.9247 16.6611 30.0125V30ZM15.6206 3.39882C15.6206 3.39882 15.6206 3.43645 15.6206 3.46153C13.0954 3.46153 10.5702 3.46153 8.05774 3.46153C5.29147 3.46153 3.81951 4.99163 3.42614 7.52508C2.70285 12.2032 2.44906 16.8436 3.55303 21.5719C4.28901 24.7074 6.15434 26.3503 9.04751 26.551C13.235 26.852 17.4732 26.8395 21.648 26.551C25.3152 26.3002 27.1805 24.2684 27.3582 20.7818C27.5485 16.8687 27.6627 12.9431 27.5232 9.03009C27.3963 5.11705 25.5817 3.53678 21.5972 3.4239C19.605 3.37374 17.6001 3.4239 15.6079 3.4239L15.6206 3.39882Z" fill="#1D0702"/>
<path d="M22.9042 15.5895C23.0438 19.2768 20.0364 22.2366 15.9631 22.4373C11.4965 22.663 7.8039 19.4774 7.71508 15.3261C7.62625 11.0493 10.9128 7.47491 15.1383 7.27425C19.2877 7.08612 22.7265 10.7609 22.9169 15.5895H22.9042ZM15.6205 19.4774C18.3487 19.4649 20.2521 17.408 20.1506 14.6112C20.0618 12.3537 17.9554 10.4348 15.5571 10.4097C12.8796 10.3972 10.7224 12.5418 10.8113 15.138C10.9001 17.5711 13.0192 19.49 15.6332 19.4649L15.6205 19.4774Z" fill="#1D0702"/>
<path d="M23.3483 5.5184C24.3508 5.61874 25.0868 6.12041 25.0868 7.21155C25.0868 8.13964 24.4523 8.75419 23.5387 8.84198C22.3713 8.95486 21.8256 8.20235 21.8129 7.14884C21.8129 6.24583 22.2317 5.59365 23.3356 5.50586L23.3483 5.5184Z" fill="#1D0702"/>
</g>
<defs>
<clipPath id="clip0_5_5">
<rect width="31" height="30" fill="white"/>
</clipPath>
</defs>
</svg>
