<svg width="49" height="31" viewBox="0 0 49 31" fill="none" xmlns="http://www.w3.org/2000/svg">
<path d="M19.38 16.81C13.81 16.81 8.22999 16.82 2.65999 16.81C1.54999 16.8 0.00998937 17.16 -1.06306e-05 15.42C-0.0100106 13.75 1.46999 13.93 2.61999 13.94C13.93 13.95 25.25 13.98 36.56 13.99C39.13 13.99 39.33 13.64 38.12 11.32C36.72 8.65999 35.67 5.87999 35.41 2.86999C35.3 1.63999 35.15 0.189993 36.94 0.00999307C38.68 -0.160007 38.63 1.29999 38.74 2.39999C38.95 4.56999 39.47 6.63999 40.39 8.60999C41.67 11.34 43.84 12.99 46.73 13.77C47.63 14.01 48.58 14.32 48.59 15.46C48.59 16.56 47.72 17.04 46.81 17.25C41.35 18.53 39.72 22.67 38.85 27.5C38.61 28.83 39.28 31.3 36.79 30.91C34.6 30.56 35.42 28.43 35.6 26.98C35.91 24.42 36.59 21.95 38.14 19.79C38.61 19.14 39.34 18.46 38.84 17.57C38.3 16.61 37.25 16.83 36.36 16.82C30.7 16.8 25.04 16.82 19.39 16.82L19.38 16.81Z" fill="black"/>
</svg>
