<svg width="628" height="246" viewBox="0 0 628 246" fill="none" xmlns="http://www.w3.org/2000/svg">
<g clip-path="url(#clip0_65_182)">
<path d="M182.235 25.2886C182.235 24.6738 182.741 24.1683 183.356 24.1683H206.681C213.9 24.1683 216.689 29.2233 216.689 35.4805C216.689 41.2186 216.046 46.0003 212.738 49.9623C212.273 50.5225 212.437 51.3832 213.093 51.6838C216.798 53.3779 218.453 58.6241 218.453 66.3296C218.453 75.7564 215.445 80.989 208.499 80.989H183.356C182.741 80.989 182.235 80.4835 182.235 79.8687V25.2886ZM197.015 48.2682C197.015 49.2656 198.218 49.7711 198.929 49.0606C200.993 46.984 202.525 44.115 202.525 41.2186C202.525 39.2922 202.757 36.6691 200.023 36.6691H198.136C197.521 36.6691 197.015 37.1746 197.015 37.7894V48.2682ZM199.12 68.4882C201.978 68.4882 204.083 65.8241 203.441 63.037C202.73 59.963 200.843 56.7251 199.025 54.3342C198.382 53.4872 197.015 53.9517 197.015 55.0173V67.3542C197.015 67.969 197.521 68.4745 198.136 68.4745H199.12V68.4882Z" fill="black"/>
<path d="M218.316 24.1683H230.73C231.291 24.1683 231.756 24.5781 231.838 25.1246L234.927 46.0003C235.119 47.2846 236.965 47.2709 237.142 46.0003C238.127 38.7731 239.221 30.6851 239.836 25.1793C239.904 24.6191 240.383 24.1819 240.943 24.1819H253.303C253.986 24.1819 254.52 24.7967 254.41 25.4662C252.305 39.2376 250.951 47.5715 248.75 59.9767C246.932 70.3735 243.582 81.5628 229.869 81.5628C226.56 81.5628 224.017 81.0983 221.488 80.2376C221.023 80.0873 220.708 79.6638 220.708 79.1719V69.6631C220.708 68.98 221.31 68.4608 221.994 68.5565C223.648 68.8024 224.386 68.9527 226.56 68.9527C228.543 68.9527 230.074 68.4745 231.277 67.5455C232.125 66.8897 231.66 65.5372 230.593 65.5372H223.785C223.224 65.5372 222.759 65.1273 222.677 64.5671L217.195 25.4389C217.099 24.7694 217.619 24.1683 218.302 24.1683H218.316Z" fill="black"/>
<path d="M301.36 24.1683H271.076C270.448 24.1683 269.955 24.6738 269.955 25.2886V79.8687C269.955 80.4835 270.461 80.9753 271.076 80.9753H283.901C284.53 80.9753 285.022 80.4698 285.022 79.8687V57.8181C285.022 56.4518 287.004 56.2742 287.237 57.6268L287.401 58.5421H298.571C299.186 58.5421 299.679 58.0367 299.679 57.4355V45.4675C299.679 44.8527 299.173 44.3609 298.571 44.3609H286.129C285.514 44.3609 285.022 43.8554 285.022 43.2406V39.5108C285.022 38.8824 285.528 38.3905 286.129 38.3905H301.346C301.975 38.3905 302.468 37.885 302.468 37.2702V25.3159C302.468 24.6874 301.962 24.1956 301.346 24.1956L301.36 24.1683Z" fill="black"/>
<path d="M335.486 65.6465H321.882L321.485 67.8187C321.239 69.1576 319.271 68.98 319.271 67.6275V25.3022C319.271 24.6738 318.765 24.1819 318.149 24.1819H305.325C304.696 24.1819 304.204 24.6874 304.204 25.3022V79.8824C304.204 80.4972 304.71 80.989 305.325 80.989H335.486C336.115 80.989 336.607 80.4835 336.607 79.8824V66.7804C336.607 66.152 336.101 65.6601 335.486 65.6601V65.6465Z" fill="black"/>
<path d="M354.504 38.3769H369.721C370.336 38.3769 370.828 37.8714 370.828 37.2566V25.3022C370.828 24.6738 370.322 24.1819 369.721 24.1819H339.437C338.822 24.1819 338.329 24.6874 338.329 25.3022V79.8824C338.329 80.4972 338.835 80.989 339.437 80.989H369.721C370.336 80.989 370.828 80.4835 370.828 79.8824V67.9144C370.828 67.2996 370.322 66.7941 369.721 66.7941H354.504C353.888 66.7941 353.382 66.2886 353.382 65.6874V57.8454C353.382 56.4792 355.365 56.3016 355.611 57.6541L355.775 58.5695H366.262C366.877 58.5695 367.369 58.064 367.369 57.4629V45.4948C367.369 44.88 366.863 44.3882 366.262 44.3882H354.517C353.902 44.3882 353.396 43.8827 353.396 43.2679V39.5382C353.396 38.9097 353.902 38.4179 354.517 38.4179L354.504 38.3769Z" fill="black"/>
<path d="M406.676 60.7964L404.995 52.8041C404.967 52.6538 404.967 52.4898 404.995 52.3532L407.182 41.97L410.641 25.5208C410.792 24.8241 410.258 24.1683 409.534 24.1683H396.354C395.807 24.1683 395.328 24.5781 395.246 25.111L392.293 43.9783C392.102 45.2352 390.283 45.2489 390.078 43.9783L387.084 25.111C387.002 24.5645 386.537 24.1683 385.977 24.1683H372.783C372.059 24.1683 371.539 24.8241 371.676 25.5208L377.322 52.3532C377.35 52.5035 377.35 52.6538 377.322 52.8041L371.676 79.6228C371.525 80.3196 372.059 80.9753 372.783 80.9753H385.977C386.524 80.9753 387.002 80.5791 387.084 80.0327L390.078 61.1653C390.283 59.9084 392.102 59.9084 392.293 61.1653L395.246 80.0327C395.328 80.5791 395.807 80.9753 396.354 80.9753H409.534C410.258 80.9753 410.778 80.3196 410.641 79.6228L406.676 60.7827V60.7964Z" fill="black"/>
<path d="M514.727 48.9923C514.631 49.129 514.235 48.9923 514.125 48.9513C512.922 48.5551 510.352 48.6508 508.656 48.9923C507.959 49.129 507.604 49.1836 507.453 49.3475C506.619 50.0716 507.262 51.5745 507.289 54.908C507.289 55.3725 507.289 55.8097 507.317 56.6295C501.656 50.6591 494.943 47.2299 487.383 45.3992C486.795 45.2626 486.193 45.1259 485.592 45.003C481.64 44.2106 477.662 43.9783 473.629 44.3062C472.535 44.4019 471.537 44.6614 470.675 45.1259C469.158 44.2652 467.517 44.033 465.74 44.5385C461.871 45.6314 458.288 47.0523 455.007 48.8694C455.759 47.0386 456.497 45.2216 457.195 43.3635C459.779 40.3169 461.611 36.7101 464.496 33.8957C464.701 33.6908 464.919 33.4995 465.125 33.2946C466.587 31.901 468.146 30.6168 469.691 29.3189C470.894 28.3216 471.742 28.1849 472.507 29.7561C472.931 30.6578 473.601 31.4365 474.134 32.2699C474.162 32.2972 474.162 32.3382 474.175 32.3655C474.285 32.5705 474.408 32.7344 474.572 32.8301C474.873 33.0623 475.228 33.035 475.392 33.035C476.09 33.0077 476.759 33.1306 477.443 33.0077C478.045 32.8847 479.234 32.8437 480.697 32.8847C483.185 32.912 486.439 33.0896 488.914 33.4448C491.06 33.7454 494.082 34.3465 497.609 35.6718C500.057 36.5325 503.037 37.8304 506.072 39.9207C507.33 40.8087 508.465 41.6831 509.449 42.5438V42.5711C509.449 42.5711 512.991 45.9593 514.631 48.6371C514.7 48.7327 514.795 48.8967 514.727 48.9923Z" fill="#373737"/>
<path d="M498.635 70.2916V70.8244C498.635 72.1769 498.594 75.7974 497.978 78.2702C497.951 78.3659 497.91 78.5708 497.787 78.5708C497.623 78.5981 497.459 78.2156 497.391 78.1336C496.83 76.9997 494.943 75.2236 493.508 74.2809C492.92 73.8847 492.619 73.6798 492.414 73.6524C491.32 73.5841 490.691 75.1006 488.34 77.4642C488.039 77.7921 487.711 78.12 487.136 78.6938C487.437 69.8407 484.744 62.1626 480.082 55.0993C477.867 51.7521 475.214 48.7464 472.152 46.1506C471.66 45.7271 471.181 45.3855 470.662 45.1259C469.144 44.2652 467.503 44.033 465.726 44.5385C461.857 45.6314 458.275 47.0523 454.993 48.8694C455.745 47.0386 456.484 45.2216 457.181 43.3635C459.765 40.3169 461.597 36.7101 464.482 33.8957C464.687 33.6908 464.906 33.4995 465.111 33.2946C467.763 32.8574 470.388 32.3245 473.109 32.3382C473.464 32.3382 473.806 32.3382 474.162 32.3655C476.117 32.4338 478.072 32.5978 480 32.7891C480.259 32.8164 480.465 32.83 480.67 32.912C481.763 33.1443 482.16 33.7044 481.668 35.098C481.34 36.027 481.244 37.0516 481.039 38.0216C480.943 38.2812 480.902 38.5135 480.943 38.7184C481.011 39.0873 481.244 39.3195 481.381 39.4562C481.873 39.9207 482.269 40.4808 482.83 40.877C483.664 41.4645 485.51 43.3362 487.342 45.4129C488.531 46.7381 489.693 48.1043 490.596 49.3202C491.894 51.069 493.603 53.6238 495.162 57.0666C496.283 59.4165 497.445 62.4358 498.088 66.0836C498.361 67.6001 498.525 69.0073 498.594 70.3189L498.635 70.2916Z" fill="#373737"/>
<path d="M487.027 52.8041C486.631 51.151 485.92 49.7164 484.99 48.4322C483.924 46.902 482.543 45.5768 481.08 44.3336C480.929 44.2243 480.779 44.0876 480.629 43.9647C480.3 43.6914 480.041 43.4182 479.849 43.1176C479.658 42.8034 479.549 42.4619 479.508 42.0383C479.22 38.9644 478.482 35.9997 477.06 33.2536C477.033 33.1853 476.992 33.117 476.978 33.0623C476.91 32.8847 476.882 32.7071 476.91 32.5158V32.4748C477.033 31.4912 477.156 30.4938 477.252 29.5102C477.252 29.4419 477.252 29.4009 477.279 29.3326C477.279 29.2369 477.306 29.1413 477.306 29.0457C477.347 28.7588 477.375 28.4992 477.416 28.2123C477.443 27.9664 477.484 27.7204 477.498 27.4745C477.867 23.5262 477.607 19.6461 476.814 15.7661C476.185 12.6648 475.57 9.56349 474.23 6.66712C473.177 4.37188 470.703 3.94836 469.144 5.90204C467.462 8.01967 465.726 10.11 464.044 12.2276C462.622 14.031 461.214 15.8481 459.738 17.6105C459.122 18.3346 458.493 18.5532 457.618 18.1979C457.154 18.0067 456.648 17.8701 456.156 17.7471C451.753 16.6814 447.296 16.1213 442.771 16.4765C441.759 16.5448 441.335 16.1486 440.939 15.3289C438.833 10.8614 436.7 6.4212 434.554 1.98101C433.364 -0.478168 430.903 -0.642113 429.276 1.58481C428.552 2.56848 427.909 3.56582 427.294 4.63146C425.598 7.56882 424.259 10.6838 423.083 13.8534C422.139 16.4902 421.62 19.1953 421.264 21.955C421.1 23.2393 420.964 24.5098 420.841 25.8077C420.813 26.081 420.786 26.3406 420.594 26.5592C418.434 29.0183 417.04 31.901 415.973 34.975C415.823 35.4259 415.618 35.8221 415.139 36.0133C413.635 36.6008 412.282 37.5025 410.928 38.3905C410.901 38.4179 410.86 38.4452 410.819 38.4589C409.342 39.4289 408.112 40.6038 407.155 41.9973C406.567 42.8444 406.088 43.7734 405.692 44.7844C404.01 49.2519 403.901 53.7331 405.583 58.1869C405.911 59.075 406.266 59.9494 406.635 60.8237C408.7 65.6874 411.366 70.2096 415.085 74.117C418.844 78.0653 423.083 81.2349 428.128 83.2979C432.599 85.1286 437.274 86.1943 442.06 86.7134C445.628 87.0823 449.224 87.3419 452.847 87.014C457.208 86.6315 461.392 85.7571 465.398 83.9674C468.898 82.4099 472.125 80.4015 475.037 77.9834C477.963 75.5515 480.492 72.6961 482.748 69.5948L482.775 69.5675C483.677 68.3242 484.539 67.0673 485.277 65.7148C485.824 64.6901 486.275 63.6245 486.603 62.4632C487.492 59.2663 487.793 56.083 487.013 52.8451L487.027 52.8041ZM483.842 62.6271C483.582 63.6245 483.076 64.4852 482.515 65.3049C482.297 65.6328 482.078 65.9607 481.859 66.2886C481.859 66.3159 481.859 66.3159 481.832 66.3296C481.722 66.4799 481.64 66.6438 481.545 66.7941C480.957 67.7777 480.328 68.7341 479.644 69.6358C478.974 70.5238 478.236 71.3982 477.484 72.2179C476.718 73.0513 475.898 73.8437 475.064 74.5951C474.216 75.3466 473.341 76.057 472.425 76.7538C469.418 79.008 466.218 80.9207 462.759 82.2186C461.187 82.8197 459.56 83.2842 457.865 83.6258C453.9 84.3909 449.921 84.7734 445.902 84.5138C445.068 84.4592 444.22 84.3772 443.386 84.2679C442.661 84.1586 441.923 84.0767 441.185 83.981C440.46 83.8854 439.722 83.7897 438.997 83.6668C437.534 83.4345 436.099 83.1476 434.663 82.7104C429.727 81.2076 424.997 79.3086 420.977 75.9887C416.096 71.9447 412.09 67.1766 409.534 61.3292C408.686 59.3755 407.907 57.3536 407.401 55.2906C406.922 53.3096 406.772 51.2193 407.292 49.1836C407.538 47.066 408.317 45.1533 409.575 43.4592C411.338 41.082 413.649 39.3742 416.356 38.1856C417.245 37.7894 417.819 37.2156 418.202 36.2866C418.352 35.904 418.503 35.5215 418.667 35.139C419.829 32.3109 421.251 29.6331 423.438 27.4062C423.903 26.928 423.807 26.2313 423.807 25.6301C423.807 24.1 423.944 22.5971 424.177 21.108C424.628 18.1706 425.489 15.3289 426.555 12.5282C427.444 10.2193 428.593 8.06065 429.755 5.88838C430.179 5.09597 430.712 4.38554 431.286 3.68878C431.696 3.18328 432.024 3.23793 432.352 3.75709C433.323 5.34189 434.075 7.02233 434.854 8.68911C436.304 11.7494 437.671 14.8371 439.093 17.8974C439.435 18.6351 439.763 19.045 440.255 19.2363C440.597 19.3729 441.021 19.4002 441.567 19.3456C441.978 19.3046 442.401 19.2772 442.812 19.2636C446.066 19.086 449.279 19.3592 452.491 19.892C453.476 20.056 454.474 20.2609 455.431 20.4795C456.32 20.6981 457.208 20.944 458.083 21.2309C458.712 21.4359 459.314 21.5452 459.861 21.3676C460.244 21.2446 460.613 20.9987 460.941 20.5342C463.019 17.7334 465.193 15.001 467.367 12.2686C468.406 10.957 469.5 9.67278 470.607 8.41587C471.25 7.66445 471.455 7.7191 471.933 8.59348C472.795 10.1646 473.082 11.9134 473.533 13.6075C474.339 16.7088 474.736 19.8647 474.832 23.0753C474.873 24.3049 474.859 25.5345 474.763 26.7504C474.763 26.8051 474.763 26.8597 474.763 26.9144C474.722 27.5838 474.654 28.2396 474.558 28.909C474.408 29.9474 474.216 30.972 473.929 32.0103C473.902 32.1196 473.861 32.2563 473.82 32.3656C473.793 32.4748 473.752 32.5978 473.724 32.7071C473.628 33.035 473.642 33.3492 473.847 33.6361C475.515 35.8904 476.226 38.4998 476.691 41.1913L476.759 41.5602C476.869 42.2569 477.006 42.94 477.129 43.6368C477.17 43.8281 477.224 44.0057 477.306 44.1833C477.539 44.6888 477.935 45.085 478.414 45.4539C479.398 46.1916 480.273 46.9977 481.052 47.8721C482.679 49.6618 483.869 51.7658 484.47 54.2113C484.799 55.4955 485.004 56.8617 484.676 58.2143C484.799 59.6215 484.293 60.9057 483.91 62.2173C483.869 62.3539 483.842 62.5042 483.801 62.6408L483.842 62.6271Z" fill="#F29147"/>
<path d="M483.842 62.6271C483.431 64.2256 482.365 65.4415 481.545 66.8077C479.193 70.7561 476.076 74.0077 472.425 76.7401C468.05 80.019 463.279 82.5601 457.865 83.6258C453.079 84.5548 448.253 84.9237 443.386 84.2679C440.46 83.8854 437.52 83.5848 434.677 82.7104C429.741 81.2076 425.011 79.3086 420.991 75.9887C416.11 71.9447 412.104 67.1903 409.547 61.3292C408.686 59.3755 407.92 57.3536 407.415 55.2906C406.936 53.3096 406.786 51.2329 407.291 49.1836C407.428 49.0197 407.579 48.8557 407.715 48.6918C408.918 47.2982 410.313 46.1916 412.186 45.9457C414.839 45.5905 417.436 45.9184 419.938 46.8884C422.714 47.954 425.216 49.5388 427.636 51.2193C429.755 52.7084 431.888 52.6401 434.007 51.2603C435.483 50.3039 436.892 49.2519 438.368 48.2819C443.441 44.962 450.017 45.6041 454.378 49.8121C455.759 51.151 456.894 52.7221 458.247 54.0883C460.011 55.878 462.062 56.4519 464.468 55.5228C465.247 55.2223 466.04 54.9217 466.833 54.6485C469.91 53.5555 473.041 52.7494 476.363 52.968C480.109 53.2139 483.158 54.4982 484.744 58.1733C484.881 59.7308 484.238 61.138 483.869 62.5998L483.842 62.6271Z" fill="#FAE7D6"/>
<path d="M484.73 58.2006C483.144 54.5255 480.095 53.2413 476.349 52.9953C473.027 52.7768 469.896 53.5828 466.82 54.6758C466.027 54.9627 465.234 55.2496 464.454 55.5502C462.048 56.4928 459.997 55.9054 458.234 54.1156C456.88 52.7494 455.759 51.1783 454.364 49.8394C450.003 45.6315 443.44 44.9757 438.354 48.2956C436.878 49.2656 435.47 50.3176 433.993 51.2739C431.874 52.6401 429.741 52.7084 427.622 51.2329C425.202 49.5388 422.7 47.9677 419.925 46.8884C417.423 45.932 414.825 45.6041 412.172 45.9457C410.313 46.1916 408.905 47.2982 407.702 48.6918C407.565 48.8557 407.428 49.0197 407.278 49.1836C407.538 47.066 408.303 45.167 409.575 43.4592C411.352 41.082 413.649 39.3606 416.342 38.172C417.245 37.7757 417.819 37.2156 418.188 36.2729C419.446 33.035 420.936 29.92 423.425 27.3925C423.889 26.9144 423.794 26.2176 423.794 25.6165C423.821 21.0533 424.928 16.7361 426.555 12.5145C427.444 10.2056 428.606 8.04699 429.768 5.87472C430.192 5.08231 430.725 4.37188 431.3 3.67512C431.71 3.18328 432.038 3.2106 432.366 3.74343C433.337 5.31457 434.075 7.00867 434.868 8.66179C436.317 11.7221 437.685 14.8097 439.106 17.8837C439.681 19.127 440.228 19.4549 441.581 19.3319C445.245 19.004 448.882 19.2772 452.505 19.8784C454.392 20.1926 456.265 20.6298 458.097 21.2173C459.163 21.5588 460.134 21.6271 460.968 20.5068C463.06 17.7061 465.234 14.9737 467.394 12.2413C468.433 10.9297 469.527 9.64546 470.634 8.38855C471.277 7.65079 471.482 7.69178 471.974 8.56615C472.835 10.1373 473.136 11.886 473.574 13.5801C474.394 16.6814 474.777 19.8374 474.873 23.048C474.968 26.3132 474.722 29.5375 473.765 32.6798C473.669 33.0077 473.669 33.3219 473.888 33.6088C475.625 35.9724 476.336 38.7048 476.787 41.5328C476.896 42.2296 477.033 42.9127 477.17 43.6095C477.32 44.4019 477.812 44.9347 478.441 45.4129C481.422 47.6671 483.595 50.5362 484.511 54.1839C484.84 55.4682 485.031 56.8344 484.717 58.187L484.73 58.2006ZM472.343 27.5975C472.699 25.3979 472.726 23.4032 472.589 21.4085C472.412 18.7308 471.632 16.1486 471.14 13.5255C471.085 13.2386 471.044 12.8834 470.73 12.7877C470.375 12.6921 470.238 13.0473 470.06 13.2659C468.871 14.7414 467.777 16.2852 466.56 17.7334C465.371 19.1406 464.044 20.3975 462.759 21.7091C462.308 22.1736 462.226 22.4605 462.91 22.7747C463.593 23.089 464.249 23.4715 464.892 23.8814C467.271 25.4115 469.335 27.3242 471.181 29.4555C471.632 29.9747 471.796 29.92 472.015 29.2916C472.234 28.6631 472.261 28.021 472.343 27.5975ZM426.528 21.2036C426.473 22.119 426.255 23.0207 426.337 23.9497C426.391 24.6055 426.665 24.5918 427.102 24.3049C427.28 24.1819 427.458 24.059 427.636 23.936C430.452 22.0233 433.405 20.4249 436.769 19.7008C437.425 19.5642 437.452 19.2636 437.138 18.8127C434.991 15.6431 433.392 12.1866 431.833 8.70277C431.737 8.49784 431.737 8.15629 431.45 8.12896C431.149 8.1153 431.013 8.41587 430.89 8.64813C430.466 9.5225 430.083 10.4242 429.632 11.2849C428.005 14.4135 426.856 17.6788 426.514 21.2036H426.528ZM459.929 35.3029C459.861 35.3029 459.533 35.2209 459.273 35.3166C457.728 35.904 456.347 36.7238 455.65 38.3359C455.363 38.978 455.103 39.6884 455.581 40.3442C456.101 41.0547 456.907 41.082 457.659 40.8907C459.451 40.4262 460.804 39.3606 461.515 37.6118C462.035 36.3276 461.515 35.5078 459.943 35.3029H459.929ZM436.44 32.5568C435.183 32.4202 434.526 33.076 434.608 34.3602C434.649 35.0297 434.882 35.6308 435.224 36.1773C435.989 37.4069 436.878 38.5272 438.437 38.8004C439.353 38.9644 440.05 38.5272 440.2 37.6938C440.597 35.6718 438.478 32.7754 436.44 32.5432V32.5568ZM432.94 42.4345C431.095 42.3116 429.686 42.2159 428.292 42.5438C428.032 42.5985 427.663 42.5985 427.704 42.9537C427.745 43.2543 428.1 43.1586 428.333 43.1723C431.354 43.3089 433.856 44.4975 435.866 46.7791C436.686 47.7218 437.726 47.5578 438.3 46.4512C438.765 45.5905 438.519 44.7708 437.575 44.1696C436.017 43.1859 434.349 42.5165 432.94 42.4345ZM462.007 45.8364C460.052 45.4812 458.179 45.7817 456.361 46.4922C455.349 46.8884 455.048 47.913 455.581 48.9104C456.032 49.7711 456.812 49.9077 457.783 49.2383C460.216 47.5578 462.882 46.9704 465.808 47.5168C466.04 47.5578 466.41 47.7901 466.519 47.4212C466.615 47.1206 466.246 47.0113 466.013 46.8884C464.755 46.2736 463.388 46.0687 462.035 45.8227L462.007 45.8364Z" fill="#F29147"/>
<path d="M472.343 27.5975C472.248 28.021 472.22 28.6631 472.015 29.2916C471.796 29.92 471.632 29.9747 471.181 29.4555C469.322 27.3242 467.271 25.4115 464.892 23.8814C464.263 23.4715 463.593 23.089 462.91 22.7747C462.226 22.4605 462.308 22.1736 462.759 21.7091C464.044 20.3975 465.371 19.1406 466.56 17.7334C467.777 16.2852 468.871 14.7414 470.06 13.2659C470.238 13.0473 470.388 12.6921 470.73 12.7877C471.058 12.8697 471.099 13.2386 471.14 13.5255C471.619 16.1486 472.412 18.7307 472.589 21.4085C472.726 23.4032 472.699 25.3979 472.343 27.5975Z" fill="#FAE7D6"/>
<path d="M426.528 21.2036C426.884 17.6788 428.032 14.4135 429.645 11.2849C430.097 10.4242 430.466 9.52249 430.903 8.64812C431.013 8.41586 431.149 8.10163 431.464 8.12896C431.751 8.14262 431.751 8.48417 431.847 8.70277C433.405 12.1729 435.005 15.6431 437.151 18.8127C437.452 19.2636 437.425 19.5641 436.782 19.7008C433.419 20.4249 430.452 22.0233 427.649 23.936C427.472 24.059 427.294 24.1956 427.116 24.3049C426.679 24.5918 426.405 24.6055 426.35 23.9497C426.268 23.0207 426.487 22.119 426.542 21.2036H426.528Z" fill="#FAE7D6"/>
<path d="M459.929 35.3029C461.501 35.5078 462.021 36.3276 461.501 37.6118C460.79 39.3605 459.437 40.4125 457.646 40.8907C456.894 41.082 456.101 41.0547 455.568 40.3442C455.075 39.6884 455.349 38.9917 455.636 38.3359C456.333 36.7238 457.714 35.904 459.259 35.3166C459.519 35.2209 459.847 35.3029 459.915 35.3029H459.929Z" fill="#FAE7D6"/>
<path d="M436.44 32.5568C438.478 32.7891 440.597 35.6854 440.2 37.7074C440.036 38.5408 439.353 38.978 438.437 38.8141C436.892 38.5272 435.989 37.4205 435.224 36.1909C434.882 35.6445 434.649 35.0433 434.608 34.3739C434.526 33.0896 435.183 32.4339 436.44 32.5705V32.5568Z" fill="#FAE7D6"/>
<path d="M432.94 42.4345C434.349 42.5165 436.03 43.1859 437.575 44.1696C438.519 44.7708 438.765 45.5905 438.3 46.4512C437.712 47.5442 436.686 47.7081 435.866 46.7791C433.856 44.4975 431.354 43.3089 428.333 43.1723C428.114 43.1723 427.745 43.2543 427.704 42.9537C427.663 42.5985 428.032 42.5985 428.292 42.5438C429.686 42.2159 431.095 42.3116 432.94 42.4345Z" fill="#41301D"/>
<path d="M462.007 45.8364C463.361 46.0823 464.728 46.2872 465.986 46.902C466.218 47.0113 466.587 47.1343 466.492 47.4349C466.382 47.7901 466.013 47.5715 465.781 47.5305C462.869 46.984 460.202 47.5578 457.755 49.2519C456.784 49.9214 456.005 49.7847 455.554 48.924C455.021 47.9267 455.322 46.8884 456.333 46.5058C458.152 45.7954 460.038 45.4948 461.98 45.85L462.007 45.8364Z" fill="#41301D"/>
<path d="M444.261 60.9057C444.083 60.7418 443.823 60.5232 443.482 60.2909C443.372 60.2226 443.304 60.1679 443.263 60.1543C442.415 59.8537 441.745 59.2799 441.075 58.6924C440.679 58.3509 440.364 57.9274 440.077 57.5038C439.284 56.3152 438.601 55.0583 438.505 53.5691C438.464 53.009 438.437 52.1483 438.901 51.2193C439.462 50.1126 440.433 49.5525 441.157 49.1563C441.513 48.9513 442.183 48.5825 443.14 48.4049C443.905 48.2682 444.507 48.3092 445.519 48.3775C445.833 48.4049 446.366 48.4459 447.05 48.5552C447.72 48.6644 448.595 48.8557 449.661 49.2792C450.482 49.6071 451.22 50.0307 451.863 50.6181C452.464 51.1646 452.902 51.8067 453.134 52.6128C453.38 53.4735 453.216 54.2523 453.025 55.072C452.751 56.2333 452.109 57.1759 451.343 58.023C450.454 58.993 449.743 59.8401 448.595 60.0996C448.103 60.2089 447.323 60.2636 446.353 60.7827C446.107 60.9057 445.929 61.0287 445.792 61.1106C445.655 61.3156 445.587 61.4932 445.546 61.6298C445.464 61.8757 445.45 62.067 445.437 62.4359C445.437 62.6271 445.464 62.6954 445.491 62.7501C445.587 62.955 445.792 63.037 445.888 63.0643C447.351 63.3102 448.28 63.4878 448.595 63.5971C448.636 63.6108 448.855 63.6791 448.964 63.5971C449.019 63.5561 449.06 63.4742 449.073 63.3239C449.073 63.2829 449.101 63.2009 449.128 63.1873C449.839 62.8184 450.017 62.0533 450.441 61.4795C450.837 60.9467 451.152 60.3456 451.616 59.8674C452.724 58.7334 454.064 58.3919 455.581 58.7607C456.689 59.034 457.441 60.004 457.523 61.1516C457.55 61.4658 457.523 61.7937 457.536 62.108C457.769 62.6135 457.536 63.0916 457.495 63.5971C457.495 63.6928 457.454 63.7747 457.441 63.8704C457.441 64.0343 457.154 64.0753 457.249 64.2802C457.249 64.4442 457.372 64.4442 457.468 64.3895C457.577 64.3349 457.687 64.2666 457.824 64.2393C458.138 64.1573 458.411 64.007 458.603 63.7338C458.63 63.7064 458.671 63.6791 458.712 63.6518C459.122 63.1873 459.232 62.6271 459.204 62.026C459.204 61.8074 459.15 61.6025 459.109 61.3975C459.027 60.9194 459.204 60.5778 459.601 60.4822C459.956 60.3865 460.244 60.6051 460.408 61.0696C460.517 61.3975 460.558 61.7391 460.558 62.0943C460.558 62.5042 460.531 62.914 460.476 63.3239C460.449 63.5561 460.353 63.7474 460.148 63.884C460.025 64.2256 459.833 64.7584 459.533 65.4005C459.204 66.0836 457.701 69.1713 454.31 71.5348C453.298 72.2453 452.423 72.6688 452.013 72.8601C451.001 73.3246 449.948 73.6798 448.841 73.9257C447.214 74.2809 445.573 74.3629 443.905 74.1853C443.071 74.0896 440.897 73.871 438.532 72.7098C435.729 71.3436 434.171 69.4035 432.981 67.928C432.981 67.928 430.534 64.3076 430.014 61.6708C430.014 61.6161 430.014 61.5615 430.014 61.5068C430.014 61.1926 429.85 60.9057 429.768 60.6188C429.659 60.2363 429.768 59.7991 429.837 59.4029C429.919 59.0067 429.987 58.5968 430.179 58.2143C430.411 57.7498 430.739 57.6131 431.149 57.7907C431.477 57.941 431.614 58.3099 431.423 58.7334C431.013 59.6078 431.136 60.4685 431.354 61.3429C432.434 61.9304 433.364 62.3266 434.02 62.5861C440.255 64.9907 444.015 63.1326 444.206 62.996C444.411 62.8457 444.534 62.6545 444.534 62.6545C444.548 62.6271 444.589 62.5451 444.644 62.3949C444.712 62.1899 444.78 61.9304 444.726 61.6025C444.698 61.4932 444.657 61.2746 444.493 61.0696C444.425 60.9877 444.357 60.933 444.302 60.892L444.261 60.9057Z" fill="#171717"/>
<path d="M431.491 63.1599C431.683 63.3239 431.888 63.4742 432.065 63.6518C433.392 64.9497 434.991 65.8241 436.686 66.5618C439.312 67.7094 442.073 68.2832 444.917 68.5428C447.31 68.7477 449.675 68.6521 452.027 68.2013C454.187 67.7777 456.251 67.0536 458.097 65.8104C458.138 65.7831 458.193 65.7694 458.247 65.7421C458.029 66.9034 455.021 69.9227 452.861 71.1659C450.577 72.4912 448.116 73.1743 445.478 73.1743C438.341 73.1879 433.091 68.1603 431.491 63.1736V63.1599Z" fill="#FAE7D6"/>
<path d="M444.698 67.4225C445.683 67.0673 446.558 66.6711 447.392 66.1793C449.046 65.182 450.208 63.7474 451.179 62.1216C451.603 61.4112 452.027 60.6871 452.696 60.168C453.448 59.5942 454.296 59.4575 455.199 59.6215C456.032 59.7718 456.511 60.3319 456.62 61.1926C456.784 62.5178 456.333 63.7201 455.827 64.9087C455.472 65.7284 454.87 66.2066 454.05 66.5072C452.437 67.1083 450.782 67.3952 449.073 67.5182C448.964 67.5182 448.8 67.5728 448.745 67.4499C448.677 67.3132 448.855 67.2586 448.937 67.1766C449.675 66.5072 450.345 65.7831 450.892 64.9634C450.96 64.8677 451.124 64.7311 450.974 64.6218C450.837 64.5125 450.741 64.6901 450.659 64.7857C449.73 65.8104 448.677 66.6984 447.419 67.2996C446.804 67.5865 445.45 67.6685 444.712 67.4225H444.698Z" fill="#E95048"/>
<path d="M444.261 57.6678C444.247 57.9 444.22 58.1459 443.96 58.1323C443.7 58.1323 443.632 57.9 443.605 57.6678C443.591 57.5312 443.577 57.4082 443.564 57.2716C443.509 56.8754 443.413 56.8207 443.044 57.0393C442.866 57.1486 442.675 57.2443 442.497 57.3809C442.196 57.5995 441.896 57.5448 441.595 57.4219C440.651 57.0393 440.009 56.3699 439.763 55.3589C439.571 54.5665 440.091 53.4052 440.815 53.0363C441.499 52.6811 442.456 52.9543 443.071 53.5691C443.96 54.4572 444.11 55.5911 444.22 56.7524C444.247 57.0666 444.384 57.3809 444.261 57.6678Z" fill="black"/>
<path d="M448.827 58.0777C448.472 58.0777 448.253 57.9001 448.089 57.5995C448.007 57.4492 447.87 57.3399 447.706 57.3399C447.515 57.3399 447.487 57.5448 447.419 57.6815C447.378 57.7771 447.364 57.8864 447.337 57.9957C447.269 58.2279 447.159 58.4739 446.9 58.4056C446.626 58.3372 446.653 58.0503 446.694 57.8317C446.763 57.5175 446.845 57.217 446.941 56.9164C447.159 56.2196 447.474 55.5775 447.857 54.9354C448.253 54.2796 448.868 53.9107 449.511 53.6921C450.112 53.4872 450.769 53.6648 451.179 54.1976C451.63 54.7578 451.931 55.4272 451.644 56.165C451.384 56.8344 451.07 57.4629 450.386 57.8727C449.866 58.187 449.347 58.105 448.814 58.0777H448.827Z" fill="black"/>
<path d="M442.524 71.9857C441.048 71.6851 439.571 71.3436 438.259 70.5375C437.808 70.2643 437.493 69.8407 437.179 69.4445C436.837 69.0347 436.96 68.7068 437.411 68.4745C437.479 68.4335 437.548 68.3926 437.575 68.3106C437.644 68.174 437.507 67.9417 437.739 67.9007C437.972 67.8597 438.272 67.8187 438.436 67.928C438.929 68.2423 439.489 68.174 440.009 68.3106C442.989 69.062 446.011 69.3079 449.073 69.1713C449.675 69.144 450.277 69.021 450.878 69.103C451.083 69.1303 451.193 69.1713 451.152 69.3899C451.111 69.6221 451.193 69.7451 451.425 69.7861C451.63 69.8271 451.657 69.9637 451.657 70.1413C451.657 70.6605 451.398 71.002 450.864 71.125C450.81 71.125 450.741 71.1386 450.714 71.1796C450.208 71.9037 449.402 71.9584 448.65 72.0677C446.599 72.3819 444.548 72.3956 442.497 71.972L442.524 71.9857Z" fill="#FCDDC8"/>
<path d="M482.119 44.8254C482.009 44.7161 481.886 44.5932 481.75 44.4839C481.709 44.4565 481.668 44.4155 481.627 44.3882C481.039 43.951 480.437 43.5275 479.836 43.104C479.207 42.6805 478.564 42.2569 477.922 41.8607C477.511 41.6148 477.115 41.3689 476.718 41.1366C469.199 36.7648 463.265 35.6171 463.265 35.6171C463.183 35.5898 463.074 35.5625 462.951 35.5352C462.226 35.3166 460.968 34.9614 459.273 34.5652C458.302 34.3329 457.195 34.087 455.95 33.8411C451.48 32.953 445.163 32.065 437.356 32.0923C433.022 32.4339 429.276 32.9394 426.309 33.4039C423.165 33.9094 420.704 34.4695 418.639 35.098C415.727 35.986 413.581 36.997 411.352 38.131C411.174 38.2266 411.024 38.3222 410.901 38.4315C410.901 38.4042 410.901 38.3632 410.928 38.3359C412.145 32.5705 414.729 27.3379 418.311 22.9933C418.639 22.8567 418.926 22.7474 419.2 22.6381C419.87 22.3786 420.567 22.1326 421.251 21.914C422.221 21.5998 423.192 21.3266 424.149 21.067C424.956 20.8621 425.762 20.6708 426.569 20.5068C430.097 19.7554 433.692 19.3729 437.302 19.2499C438.272 19.2226 439.243 19.1953 440.228 19.1953C441.075 19.1953 441.937 19.1953 442.784 19.2226C443.03 19.2226 443.276 19.2226 443.523 19.2499C447.515 19.3866 451.48 19.7691 455.404 20.4522C456.894 20.6981 458.37 20.9987 459.833 21.3402C460.189 21.4085 460.544 21.4905 460.9 21.5862C461.433 21.7091 461.966 21.8457 462.486 21.9824C465.548 22.7884 468.542 23.7994 471.427 25.0837C471.796 25.2476 472.179 25.4252 472.535 25.6165C473.191 25.917 473.834 26.2449 474.476 26.5865C474.503 26.5865 474.531 26.6138 474.558 26.6275C474.627 26.6548 474.681 26.6958 474.75 26.7368C475.625 27.2013 476.472 27.7204 477.361 28.2123C477.416 28.2396 477.47 28.2806 477.511 28.3079C477.662 28.5675 477.798 28.8407 477.949 29.114C478.004 29.2233 478.058 29.3326 478.113 29.4419C478.66 30.5075 479.166 31.6141 479.603 32.7481C479.631 32.7891 479.644 32.8301 479.658 32.8711C480.246 34.3739 480.724 35.9177 481.107 37.5162C481.285 38.2266 481.435 38.937 481.545 39.6475C481.832 41.2323 481.996 42.8307 482.05 44.4565C482.05 44.5795 482.05 44.7161 482.05 44.8391L482.119 44.8254Z" fill="#373737"/>
<path d="M568.321 129.626C568.321 125.35 571.958 123.724 575.609 123.724C583.238 123.724 584.345 130.446 583.825 137.017C583.716 138.452 584.851 139.681 586.286 139.681H613.576C614.82 139.681 615.859 138.78 616.023 137.55C616.324 135.419 616.707 131.976 616.707 128.629C616.707 100.635 602.378 96.4818 582.39 96.4818H569.319C542.809 96.4818 535.645 111.674 535.645 130.391C535.645 170.968 585.411 170.326 585.411 188.537C585.411 194.822 582.773 196.953 578.001 196.953C570.399 196.953 568.704 189.698 569.825 180.094C570.003 178.632 568.841 177.362 567.364 177.362H539.678C538.379 177.362 537.313 178.359 537.204 179.643C535.44 201.052 536.67 224.578 565.3 224.578H583.156C608.668 224.578 618.224 215.533 618.224 188.401C618.224 147.209 568.335 146.212 568.335 129.626H568.321ZM529.383 97.7251H501.656C500.289 97.7251 499.195 98.8317 499.195 100.198V220.834C499.195 222.201 500.303 223.307 501.656 223.307H529.383C530.75 223.307 531.858 222.201 531.858 220.834V100.198C531.858 98.8317 530.75 97.7251 529.383 97.7251ZM491.689 97.7251H463.333C461.966 97.7251 460.872 98.8317 460.872 100.198V139.832C460.872 141.198 459.765 142.291 458.398 142.291H449.894C448.526 142.291 447.433 141.184 447.433 139.832V100.198C447.433 98.8317 446.325 97.7251 444.958 97.7251H416.602C415.235 97.7251 414.128 98.8317 414.128 100.198V220.834C414.128 222.201 415.235 223.307 416.602 223.307H444.958C446.325 223.307 447.433 222.201 447.433 220.834V176.173C447.433 174.807 448.54 173.7 449.894 173.7H458.398C459.765 173.7 460.872 174.807 460.872 176.173V220.834C460.872 222.201 461.98 223.307 463.333 223.307H491.689C493.056 223.307 494.15 222.201 494.15 220.834V100.198C494.15 98.8317 493.043 97.7251 491.689 97.7251ZM380.043 96.4682H358.427C339.697 96.4682 329.402 109.775 329.402 128.615V192.417C329.402 211.257 339.71 224.578 358.427 224.578H380.043C398.774 224.578 409.069 211.271 409.069 192.417V178.7C409.069 177.334 407.961 176.228 406.594 176.228H379.633C378.266 176.228 377.158 177.334 377.158 178.7V182.635C377.158 187.403 377.924 195.682 369.242 195.682C360.56 195.682 361.326 187.39 361.326 182.635V138.425C361.326 133.656 360.56 125.364 369.242 125.364C377.924 125.364 377.158 135.542 377.158 138.425V142.359C377.158 143.725 378.266 144.832 379.633 144.832H406.594C407.961 144.832 409.069 143.725 409.069 142.359V128.629C409.069 109.789 398.76 96.4818 380.043 96.4818V96.4682ZM324.357 99.952C324.234 98.6951 323.167 97.7251 321.896 97.7251H293.54C292.172 97.7251 291.065 98.8317 291.065 100.198V136.908C291.065 139.886 286.772 140.324 286.157 137.427L278.159 99.6788C278.131 99.5285 278.077 99.3645 278.008 99.2279C277.639 98.3399 276.723 97.7251 275.725 97.7251H246.781C245.414 97.7251 244.307 98.8317 244.307 100.198V220.834C244.307 222.201 245.414 223.307 246.781 223.307H275.137C275.493 223.307 275.821 223.239 276.121 223.102C276.614 223.102 277.106 223.102 277.598 223.075V221.08C277.598 220.998 277.598 220.916 277.598 220.834V183.496C277.598 180.517 281.877 180.08 282.493 182.99L290.628 221.354C290.874 222.501 291.872 223.321 293.048 223.321H321.882C323.249 223.321 324.357 222.214 324.357 220.848V100.212C324.357 100.212 324.357 100.102 324.357 100.061V99.9657V99.952ZM210.249 96.4682H188.634C169.903 96.4682 159.608 109.775 159.608 128.615V192.417C159.608 211.257 169.917 224.578 188.634 224.578H210.249C228.98 224.578 239.289 211.271 239.289 192.417V128.615C239.289 109.775 228.98 96.4682 210.249 96.4682ZM115.228 197.486L110.197 97.9027H59.2958L54.2645 197.732L48.0984 97.9027H12.3049L24.4867 223.485H77.5207L84.8079 112.33L91.9721 223.485H145.006L157.065 97.9027H121.258L115.215 197.486H115.228Z" fill="#1D1D1B"/>
<path d="M611.84 161.104H612.304C619.031 161.104 624.787 156.09 625.703 149.45C626.059 146.854 626.482 142.933 626.482 139.012C626.482 100.744 602.242 95.826 581.118 95.826H568.048C556.386 95.826 546.829 98.4355 539.596 103.477C537.217 99.6514 532.965 97.083 528.125 97.083H500.398C498.635 97.083 496.967 97.4382 495.408 98.053C493.863 97.4382 492.182 97.083 490.418 97.083H462.062C458.507 97.083 455.281 98.4628 452.874 100.703C450.454 98.4628 447.228 97.083 443.673 97.083H415.317C410.313 97.083 405.938 99.829 403.6 103.873C396.996 98.7088 388.533 95.8397 378.772 95.8397H357.156C347.394 95.8397 338.931 98.7224 332.327 103.873C329.99 99.829 325.628 97.083 320.624 97.083H292.268C288.85 97.083 285.733 98.3535 283.354 100.444C280.948 98.3399 277.817 97.083 274.467 97.083H245.523C240.519 97.083 236.144 99.829 233.806 103.873C227.216 98.7088 218.753 95.8397 208.978 95.8397H187.362C178.749 95.8397 171.161 98.0803 164.967 102.152C164.68 101.714 164.352 101.277 163.983 100.881C161.891 98.5858 158.924 97.2606 155.807 97.2606H120C117.976 97.2606 116.103 97.8071 114.463 98.7497C112.836 97.8071 110.949 97.2606 108.939 97.2606H58.038C56.0009 97.2606 54.0868 97.8071 52.4325 98.7771C50.7918 97.8071 48.8777 97.2606 46.8406 97.2606H11.0471C7.92982 97.2606 4.96297 98.5858 2.87114 100.881C0.779314 103.19 -0.246093 106.264 0.0546932 109.365L12.2502 234.947C12.7971 240.603 17.555 244.921 23.2426 244.921H76.2766C79.0247 244.921 81.554 243.896 83.4954 242.229C85.4369 243.91 87.9662 244.921 90.7143 244.921H143.748C149.436 244.921 154.194 240.59 154.741 234.934L155.206 230.193C162.206 240.153 173.458 246 187.362 246H208.978C218.753 246 227.216 243.104 233.806 237.953C236.144 241.997 240.519 244.743 245.523 244.743H273.879C277.311 244.743 280.469 243.459 282.848 241.328C285.268 243.459 288.413 244.743 291.803 244.743H320.638C325.642 244.743 330.003 241.997 332.341 237.953C338.945 243.117 347.408 246 357.17 246H378.785C388.547 246 397.01 243.104 403.614 237.953C405.952 241.997 410.327 244.743 415.331 244.743H443.687C447.241 244.743 450.468 243.377 452.888 241.123C455.308 243.363 458.535 244.743 462.076 244.743H490.431C492.195 244.743 493.863 244.388 495.422 243.773C496.967 244.388 498.648 244.743 500.412 244.743H528.139C532.774 244.743 536.876 242.393 539.309 238.841C545.735 243.595 554.02 246.014 564.056 246.014H581.911C592.179 246.014 606.959 244.852 616.871 234.811C626.865 224.687 628.014 209.413 628.014 198.811C628.014 181.283 620.877 169.533 611.867 161.117L611.84 161.104ZM145.02 223.485H91.9858L84.8216 112.33L77.5344 223.485H24.5004L12.3186 97.9027H48.1258L54.2919 197.732L59.3232 97.9027H110.224L115.256 197.486L121.299 97.9027H157.106L145.047 223.485H145.02ZM239.289 192.417C239.289 211.257 228.98 224.578 210.249 224.578H188.634C169.903 224.578 159.608 211.271 159.608 192.417V128.615C159.608 109.775 169.917 96.4682 188.634 96.4682H210.249C228.98 96.4682 239.289 109.775 239.289 128.615V192.417ZM324.37 220.834C324.37 222.201 323.263 223.307 321.896 223.307H293.061C291.899 223.307 290.887 222.487 290.641 221.34L282.506 182.977C281.891 180.067 277.612 180.517 277.612 183.482V220.821C277.612 220.903 277.612 220.985 277.612 221.067V223.075C277.12 223.075 276.627 223.075 276.135 223.102C275.834 223.239 275.506 223.307 275.151 223.307H246.795C245.428 223.307 244.32 222.201 244.32 220.834V100.198C244.32 98.8317 245.428 97.7251 246.795 97.7251H275.739C276.737 97.7251 277.639 98.3262 278.022 99.2279C278.09 99.3782 278.131 99.5285 278.172 99.6788L286.171 137.427C286.786 140.324 291.079 139.886 291.079 136.908V100.198C291.079 98.8317 292.186 97.7251 293.553 97.7251H321.909C323.195 97.7251 324.247 98.6951 324.37 99.952V100.048C324.37 100.048 324.37 100.157 324.37 100.198V220.834ZM409.069 142.346C409.069 143.712 407.961 144.818 406.594 144.818H379.633C378.266 144.818 377.158 143.712 377.158 142.346V138.411C377.158 135.514 377.924 125.35 369.242 125.35C360.56 125.35 361.326 133.643 361.326 138.411V182.621C361.326 187.39 360.56 195.669 369.242 195.669C377.924 195.669 377.158 187.376 377.158 182.621V178.687C377.158 177.321 378.266 176.214 379.633 176.214H406.594C407.961 176.214 409.069 177.321 409.069 178.687V192.404C409.069 211.244 398.76 224.564 380.043 224.564H358.427C339.697 224.564 329.402 211.257 329.402 192.404V128.601C329.402 109.761 339.71 96.4545 358.427 96.4545H380.043C398.774 96.4545 409.069 109.761 409.069 128.601V142.332V142.346ZM494.164 220.834C494.164 222.201 493.057 223.307 491.703 223.307H463.347C461.98 223.307 460.886 222.201 460.886 220.834V176.173C460.886 174.807 459.779 173.7 458.411 173.7H449.907C448.54 173.7 447.446 174.807 447.446 176.173V220.834C447.446 222.201 446.339 223.307 444.972 223.307H416.616C415.249 223.307 414.141 222.201 414.141 220.834V100.198C414.141 98.8317 415.249 97.7251 416.616 97.7251H444.972C446.339 97.7251 447.446 98.8317 447.446 100.198V139.832C447.446 141.198 448.554 142.291 449.907 142.291H458.411C459.779 142.291 460.886 141.184 460.886 139.832V100.198C460.886 98.8317 461.994 97.7251 463.347 97.7251H491.703C493.07 97.7251 494.164 98.8317 494.164 100.198V220.834ZM531.872 220.834C531.872 222.201 530.764 223.307 529.397 223.307H501.67C500.303 223.307 499.209 222.201 499.209 220.834V100.198C499.209 98.8317 500.316 97.7251 501.67 97.7251H529.397C530.764 97.7251 531.872 98.8317 531.872 100.198V220.834ZM583.142 224.578H565.286C536.657 224.578 535.426 201.038 537.19 179.643C537.299 178.359 538.366 177.362 539.665 177.362H567.351C568.814 177.362 569.989 178.646 569.812 180.094C568.704 189.698 570.4 196.953 577.988 196.953C582.759 196.953 585.398 194.822 585.398 188.537C585.398 170.326 535.631 170.954 535.631 130.391C535.631 111.674 542.796 96.4818 569.306 96.4818H582.376C602.365 96.4818 616.693 100.635 616.693 128.629C616.693 131.976 616.31 135.419 616.01 137.55C615.846 138.78 614.806 139.681 613.562 139.681H586.273C584.824 139.681 583.689 138.452 583.812 137.017C584.345 130.446 583.224 123.724 575.595 123.724C571.958 123.724 568.308 125.364 568.308 129.626C568.308 146.198 618.197 147.209 618.197 188.401C618.197 215.52 608.64 224.578 583.128 224.578H583.142Z" fill="black"/>
<path d="M91.9858 225.138C91.1108 225.138 90.3998 224.469 90.3452 223.594L84.8216 137.755L79.1887 223.594C79.134 224.455 78.4094 225.138 77.5481 225.138H24.5004C23.6527 225.138 22.9418 224.496 22.8597 223.649L10.6642 98.0666C10.6232 97.6021 10.7736 97.1513 11.0881 96.7961C11.4025 96.4545 11.84 96.2496 12.3049 96.2496H48.1121C48.9871 96.2496 49.698 96.9327 49.7527 97.7934L54.1004 168.263L57.6415 97.8071C57.6825 96.9327 58.4072 96.2359 59.2822 96.2359H110.183C111.058 96.2359 111.783 96.919 111.824 97.8071L115.351 167.757L119.59 97.7934C119.644 96.919 120.369 96.2496 121.23 96.2496H157.051C157.516 96.2496 157.954 96.4408 158.268 96.7961C158.583 97.1513 158.733 97.6021 158.692 98.0666L146.633 223.649C146.551 224.496 145.84 225.138 144.992 225.138H91.9585H91.9858Z" fill="#F2E8D9"/>
<path d="M157.079 97.9027L145.02 223.485H91.9858L84.8216 112.33L77.5344 223.485H24.5004L12.3186 97.9027H48.1258L54.2919 197.732L59.3232 97.9027H110.224L115.256 197.486L121.299 97.9027H157.106M157.092 94.6101H121.271C119.535 94.6101 118.086 95.9627 117.976 97.7114L115.529 138.056L113.492 97.7387C113.41 95.99 111.961 94.6101 110.197 94.6101H59.2958C57.5458 94.6101 56.0966 95.99 56.0009 97.7387L53.9364 138.821L51.3934 97.7114C51.284 95.9763 49.8484 94.6238 48.0984 94.6238H12.3049C11.3752 94.6238 10.4865 95.02 9.85758 95.7031C9.22866 96.3862 8.92788 97.3152 9.02358 98.2306L21.2054 223.813C21.3695 225.507 22.7914 226.791 24.4867 226.791H77.5207C79.2571 226.791 80.6927 225.439 80.8157 223.717L84.7806 163.18L88.6772 223.703C88.7865 225.439 90.2221 226.791 91.9721 226.791H145.006C146.702 226.791 148.123 225.507 148.287 223.813L160.333 98.3809C160.36 98.2306 160.36 98.0666 160.36 97.9164C160.36 96.0993 158.883 94.6238 157.065 94.6238L157.092 94.6101Z" fill="#1D1D1B"/>
<path d="M188.634 226.217C169.712 226.217 157.954 213.266 157.954 192.417V128.615C157.954 107.767 169.712 94.8151 188.634 94.8151H210.249C229.172 94.8151 240.93 107.767 240.93 128.615V192.417C240.93 213.266 229.172 226.217 210.249 226.217H188.634ZM199.448 127.003C197.466 127.003 196.03 127.481 195.06 128.465C193.105 130.446 193.146 134.422 193.173 137.332V138.411V182.621V183.701C193.132 186.611 193.091 190.586 195.046 192.567C196.017 193.551 197.452 194.029 199.435 194.029C201.417 194.029 202.853 193.551 203.824 192.567C205.779 190.6 205.738 186.624 205.697 183.714V182.621V138.411V137.318C205.738 134.408 205.779 130.432 203.824 128.451C202.853 127.468 201.417 126.989 199.435 126.989L199.448 127.003Z" fill="#F2E8D9"/>
<path d="M210.249 96.4682C228.98 96.4682 239.289 109.775 239.289 128.615V192.417C239.289 211.257 228.98 224.578 210.249 224.578H188.634C169.903 224.578 159.608 211.271 159.608 192.417V128.615C159.608 109.775 169.917 96.4682 188.634 96.4682H210.249ZM199.448 195.682C208.117 195.682 207.365 187.39 207.365 182.635V138.425C207.365 133.656 208.13 125.364 199.448 125.364C190.767 125.364 191.532 133.656 191.532 138.425V182.635C191.532 187.403 190.78 195.682 199.448 195.682ZM210.249 93.1756H188.634C169.001 93.1756 156.313 107.084 156.313 128.615V192.417C156.313 213.949 169.001 227.87 188.634 227.87H210.249C229.896 227.87 242.584 213.949 242.584 192.417V128.615C242.584 107.084 229.896 93.1756 210.249 93.1756ZM199.448 192.39C197.193 192.39 196.468 191.652 196.222 191.42C194.745 189.931 194.786 186.351 194.814 183.728C194.814 183.346 194.814 182.977 194.814 182.635V138.425C194.814 138.069 194.814 137.7 194.814 137.332C194.786 134.708 194.745 131.129 196.222 129.64C196.454 129.394 197.193 128.67 199.448 128.67C201.704 128.67 202.429 129.408 202.661 129.64C204.138 131.129 204.097 134.708 204.07 137.318C204.07 137.7 204.07 138.083 204.07 138.425V182.635C204.07 182.99 204.07 183.359 204.07 183.742C204.097 186.351 204.138 189.931 202.661 191.42C202.429 191.666 201.704 192.39 199.448 192.39Z" fill="#1D1D1B"/>
<path d="M324.37 99.4192C325.628 99.5285 326.216 99.4329 326.831 99.7607C326.831 99.8154 326.667 99.87 326.298 99.911C325.915 99.952 325.382 99.9793 324.357 99.952C324.056 99.8974 322.046 99.7471 321.896 99.6105C322.06 99.4875 324.083 99.4602 324.37 99.4192Z" fill="#F4A88A"/>
<path d="M324.357 100.048C326.366 130.473 326.312 161.759 325.779 192.267C325.614 199.918 325.095 215.342 324.739 222.993L324.671 224.673C319.257 224.523 313.843 224.441 308.429 224.209C303.534 224.045 298.639 223.799 293.731 223.485C303.493 222.501 313.269 221.886 323.058 221.326L321.431 222.966C321.239 215.301 321.034 199.89 321.034 192.226C321.13 161.705 321.732 130.446 324.37 100.048H324.357Z" fill="#F4A88A"/>
<path d="M277.625 183.673C279.567 189.808 280.032 196.051 280.086 202.377C280.032 208.702 279.553 214.946 277.612 221.08C275.67 214.946 275.192 208.702 275.151 202.377C275.219 196.051 275.684 189.808 277.625 183.673Z" fill="#F4A88A"/>
<path d="M276.135 223.102C266.961 226.6 256.27 226.764 247 223.485C256.174 219.96 266.865 219.851 276.135 223.102Z" fill="#F4A88A"/>
<path d="M278.077 97.8617C279.444 103.545 282.124 114.953 283.422 120.65C284.297 124.421 285.665 128.137 286.116 131.908C286.608 134.271 286.567 136.894 288.194 138.438C288.686 138.78 289.643 138.725 290.614 138.452C290.846 138.37 291.038 138.67 290.901 138.848C289.329 141.362 286.088 141.061 284.297 138.889C280.127 133.779 280.264 127.44 279.512 121.333C278.569 113.559 277.954 105.758 277.571 97.93C277.557 97.6431 277.995 97.5611 278.063 97.8617H278.077Z" fill="#F4A88A"/>
<path d="M293.061 224.96C291.12 224.96 289.424 223.58 289.028 221.681L280.893 183.332C280.797 182.895 280.538 182.676 280.114 182.676C279.922 182.676 279.266 182.731 279.266 183.509V220.848C279.266 220.957 279.266 221.053 279.266 221.162V221.272C279.102 222.761 278.159 224.045 276.791 224.632C276.286 224.851 275.739 224.974 275.151 224.974H246.795C244.525 224.974 242.666 223.13 242.666 220.848V100.212C242.666 97.9437 244.512 96.0856 246.795 96.0856H275.739C277.407 96.0856 278.897 97.0693 279.54 98.5995C279.649 98.8454 279.731 99.105 279.786 99.3645L287.784 137.113C287.88 137.55 288.139 137.769 288.563 137.769C288.768 137.769 289.424 137.714 289.424 136.935V100.225C289.424 97.9573 291.27 96.0993 293.553 96.0993H321.909C324.042 96.0993 325.806 97.6978 326.011 99.8154V99.9657C326.025 100.075 326.025 100.171 326.025 100.225V220.862C326.025 223.13 324.179 224.988 321.896 224.988H293.061V224.96Z" fill="#F2E8D9"/>
<path d="M321.896 97.7251C323.181 97.7251 324.234 98.6951 324.357 99.952V100.048C324.357 100.048 324.357 100.157 324.357 100.198V220.834C324.357 222.201 323.249 223.307 321.882 223.307H293.048C291.885 223.307 290.874 222.488 290.628 221.34L282.493 182.977C282.206 181.638 281.153 181.009 280.1 181.009C278.856 181.009 277.612 181.884 277.612 183.482V220.821C277.612 220.903 277.612 220.985 277.612 221.067C277.516 221.982 276.942 222.747 276.135 223.089C275.834 223.225 275.506 223.294 275.151 223.294H246.795C245.428 223.294 244.32 222.187 244.32 220.821V100.184C244.32 98.8181 245.428 97.7114 246.795 97.7114H275.739C276.737 97.7114 277.639 98.3126 278.022 99.2143C278.09 99.3645 278.131 99.5148 278.172 99.6651L286.17 137.414C286.458 138.752 287.51 139.367 288.563 139.367C289.807 139.367 291.065 138.493 291.065 136.894V100.184C291.065 98.8181 292.173 97.7114 293.54 97.7114H321.896M321.896 94.4325H293.54C290.354 94.4325 287.77 97.0147 287.77 100.198V129.107L281.385 98.9957C281.317 98.6678 281.208 98.2852 281.043 97.93C280.155 95.8124 278.077 94.4325 275.739 94.4325H246.795C243.609 94.4325 241.025 97.0147 241.025 100.198V220.834C241.025 224.018 243.609 226.6 246.795 226.6H275.151C275.971 226.6 276.75 226.436 277.489 226.108C279.362 225.302 280.688 223.499 280.893 221.422V221.258L280.907 221.217C280.907 221.053 280.907 220.93 280.907 220.834V191.352L287.415 222.023C287.975 224.673 290.34 226.6 293.048 226.6H321.882C325.068 226.6 327.652 224.018 327.652 220.834V100.198C327.652 100.198 327.652 100.02 327.652 99.87V99.6241C327.337 96.6594 324.876 94.4325 321.882 94.4325H321.896Z" fill="#1D1D1B"/>
<path d="M358.427 226.217C339.505 226.217 327.747 213.266 327.747 192.417V128.615C327.747 107.767 339.505 94.8151 358.427 94.8151H380.043C398.965 94.8151 410.723 107.767 410.723 128.615V142.346C410.723 144.613 408.877 146.472 406.594 146.472H379.633C377.363 146.472 375.504 144.627 375.504 142.346V137.728C375.545 135.474 375.613 130.801 373.316 128.465C372.332 127.468 371.006 126.989 369.242 126.989C367.26 126.989 365.824 127.468 364.84 128.451C362.885 130.432 362.926 134.408 362.953 137.304V138.397V182.608V183.701C362.912 186.597 362.871 190.573 364.826 192.554C365.797 193.537 367.246 194.016 369.228 194.016C371.211 194.016 372.646 193.537 373.617 192.554C375.572 190.586 375.531 186.611 375.504 183.701V182.608V178.673C375.504 176.405 377.35 174.547 379.633 174.547H406.594C408.864 174.547 410.723 176.392 410.723 178.673V192.39C410.723 213.238 398.965 226.19 380.043 226.19H358.427V226.217Z" fill="#F2E8D9"/>
<path d="M380.043 96.4682C398.774 96.4682 409.069 109.775 409.069 128.615V142.346C409.069 143.712 407.961 144.818 406.594 144.818H379.633C378.266 144.818 377.158 143.712 377.158 142.346V138.411C377.158 135.514 377.924 125.35 369.242 125.35C360.56 125.35 361.326 133.643 361.326 138.411V182.621C361.326 187.39 360.56 195.669 369.242 195.669C377.924 195.669 377.158 187.376 377.158 182.621V178.687C377.158 177.321 378.266 176.214 379.633 176.214H406.594C407.961 176.214 409.069 177.321 409.069 178.687V192.404C409.069 211.244 398.76 224.564 380.043 224.564H358.427C339.697 224.564 329.402 211.257 329.402 192.404V128.601C329.402 109.761 339.71 96.4545 358.427 96.4545H380.043M380.043 93.1756H358.427C338.794 93.1756 326.107 107.084 326.107 128.615V192.417C326.107 213.949 338.794 227.87 358.427 227.87H380.043C399.676 227.87 412.364 213.949 412.364 192.417V178.7C412.364 175.517 409.78 172.935 406.594 172.935H379.633C376.447 172.935 373.863 175.517 373.863 178.7V182.635C373.863 182.99 373.863 183.359 373.863 183.742C373.891 186.351 373.932 189.931 372.455 191.42C372.223 191.666 371.498 192.39 369.242 192.39C366.986 192.39 366.248 191.652 366.015 191.42C364.539 189.931 364.58 186.351 364.607 183.742C364.607 183.359 364.607 182.99 364.607 182.635V138.425C364.607 138.069 364.607 137.7 364.607 137.318C364.58 134.708 364.539 131.115 366.015 129.64C366.248 129.394 366.986 128.67 369.242 128.67C370.965 128.67 371.73 129.23 372.141 129.653C373.959 131.498 373.891 135.87 373.863 137.728C373.863 137.987 373.863 138.233 373.863 138.438V142.373C373.863 145.556 376.447 148.138 379.633 148.138H406.594C409.78 148.138 412.364 145.556 412.364 142.373V128.642C412.364 107.111 399.676 93.2029 380.043 93.2029V93.1756Z" fill="#1D1D1B"/>
<path d="M463.333 224.96C461.064 224.96 459.218 223.116 459.218 220.834V176.173C459.218 175.722 458.835 175.34 458.384 175.34H449.88C449.429 175.34 449.06 175.708 449.06 176.173V220.834C449.06 223.102 447.214 224.96 444.931 224.96H416.575C414.305 224.96 412.446 223.116 412.446 220.834V100.198C412.446 97.93 414.292 96.072 416.575 96.072H444.931C447.2 96.072 449.06 97.9164 449.06 100.198V139.832C449.06 140.283 449.429 140.651 449.88 140.651H458.384C458.835 140.651 459.218 140.283 459.218 139.832V100.198C459.218 97.93 461.064 96.072 463.333 96.072H491.689C493.959 96.072 495.805 97.9164 495.805 100.198V220.834C495.805 223.102 493.959 224.96 491.689 224.96H463.333Z" fill="#F2E8D9"/>
<path d="M491.689 97.7251C493.057 97.7251 494.15 98.8317 494.15 100.198V220.834C494.15 222.201 493.043 223.307 491.689 223.307H463.333C461.966 223.307 460.872 222.201 460.872 220.834V176.173C460.872 174.807 459.765 173.7 458.398 173.7H449.894C448.527 173.7 447.433 174.807 447.433 176.173V220.834C447.433 222.201 446.325 223.307 444.958 223.307H416.602C415.235 223.307 414.128 222.201 414.128 220.834V100.198C414.128 98.8317 415.235 97.7251 416.602 97.7251H444.958C446.325 97.7251 447.433 98.8317 447.433 100.198V139.832C447.433 141.198 448.54 142.291 449.894 142.291H458.398C459.765 142.291 460.872 141.184 460.872 139.832V100.198C460.872 98.8317 461.98 97.7251 463.333 97.7251H491.689ZM491.689 94.4325H463.333C460.161 94.4325 457.564 97.0147 457.564 100.198V138.998H450.714V100.198C450.714 97.0147 448.13 94.4325 444.944 94.4325H416.589C413.403 94.4325 410.819 97.0147 410.819 100.198V220.834C410.819 224.018 413.403 226.6 416.589 226.6H444.944C448.13 226.6 450.714 224.018 450.714 220.834V176.993H457.564V220.834C457.564 224.018 460.148 226.6 463.333 226.6H491.689C494.861 226.6 497.459 224.018 497.459 220.834V100.198C497.459 97.0147 494.875 94.4325 491.689 94.4325Z" fill="#1D1D1B"/>
<path d="M501.656 224.96C499.387 224.96 497.541 223.116 497.541 220.834V100.198C497.541 97.93 499.387 96.072 501.656 96.072H529.383C531.653 96.072 533.512 97.9164 533.512 100.198V220.834C533.512 223.102 531.667 224.96 529.383 224.96H501.656Z" fill="#F2E8D9"/>
<path d="M529.383 97.7251C530.75 97.7251 531.858 98.8317 531.858 100.198V220.834C531.858 222.201 530.75 223.307 529.383 223.307H501.656C500.289 223.307 499.195 222.201 499.195 220.834V100.198C499.195 98.8317 500.303 97.7251 501.656 97.7251H529.383ZM529.383 94.4325H501.656C498.484 94.4325 495.887 97.0147 495.887 100.198V220.834C495.887 224.018 498.471 226.6 501.656 226.6H529.383C532.569 226.6 535.153 224.018 535.153 220.834V100.198C535.153 97.0147 532.569 94.4325 529.383 94.4325Z" fill="#1D1D1B"/>
<path d="M565.3 226.217C555.483 226.217 547.964 223.471 542.96 218.047C534.401 208.771 534.415 193.36 535.549 179.493C535.741 177.321 537.518 175.695 539.665 175.695H567.351C568.526 175.695 569.661 176.2 570.441 177.088C571.22 177.963 571.575 179.124 571.439 180.272C570.7 186.665 571.357 191.229 573.366 193.483C574.446 194.699 575.964 195.286 577.988 195.286C581.542 195.286 583.743 194.152 583.743 188.523C583.743 182.212 576.361 178.263 567.009 173.277C552.284 165.421 533.977 155.652 533.977 130.378C533.977 106.455 545.53 94.8287 569.306 94.8287H582.376C604.58 94.8287 618.334 100.485 618.334 128.629C618.334 132.277 617.896 135.924 617.637 137.782C617.363 139.804 615.613 141.335 613.562 141.335H586.273C585.124 141.335 584.017 140.856 583.238 140.009C582.458 139.162 582.062 138.028 582.157 136.894C582.54 132.167 581.898 128.861 580.271 127.085C579.204 125.937 577.673 125.377 575.595 125.377C573.9 125.377 569.962 125.787 569.962 129.64C569.962 135.091 576.962 138.903 585.822 143.712C600.191 151.526 619.865 162.224 619.865 188.401C619.865 215.971 609.912 226.217 583.156 226.217H565.3Z" fill="#F2E8D9"/>
<path d="M582.39 96.4682C602.379 96.4682 616.707 100.621 616.707 128.615C616.707 131.962 616.324 135.405 616.023 137.536C615.859 138.766 614.82 139.668 613.576 139.668H586.286C584.837 139.668 583.702 138.438 583.825 137.004C584.359 130.432 583.238 123.71 575.609 123.71C571.972 123.71 568.321 125.35 568.321 129.612C568.321 146.185 618.211 147.196 618.211 188.387C618.211 215.506 608.654 224.564 583.142 224.564H565.286C536.657 224.564 535.426 201.024 537.19 179.629C537.299 178.345 538.366 177.348 539.665 177.348H567.351C568.814 177.348 569.989 178.632 569.812 180.08C568.704 189.685 570.4 196.939 577.988 196.939C582.759 196.939 585.398 194.808 585.398 188.524C585.398 170.312 535.631 170.94 535.631 130.378C535.631 111.66 542.796 96.4682 569.306 96.4682H582.376M582.39 93.1756H569.319C544.778 93.1756 532.336 105.69 532.336 130.378C532.336 155.065 550.794 166.473 564.972 174.055H539.678C536.657 174.055 534.182 176.337 533.922 179.343C532.747 193.578 532.774 209.413 541.756 219.168C547.075 224.947 555.005 227.87 565.314 227.87H583.169C597.457 227.87 606.548 225.124 612.619 218.976C618.703 212.815 621.533 203.101 621.533 188.401C621.533 162.033 602.529 150.925 587.941 142.974H613.603C616.474 142.974 618.935 140.829 619.318 137.987C619.578 136.102 620.029 132.372 620.029 128.615C620.029 95.908 600.615 93.1756 582.417 93.1756H582.39ZM580.804 139.026C575.486 135.924 571.603 132.96 571.603 129.626C571.603 127.468 573.777 127.017 575.595 127.017C577.974 127.017 578.794 127.905 579.054 128.192C579.956 129.175 580.941 131.443 580.517 136.744C580.449 137.523 580.558 138.302 580.79 139.026H580.804ZM578.001 193.647C575.964 193.647 575.089 192.936 574.611 192.39C573.653 191.311 572.177 188.332 573.093 180.463C573.175 179.78 573.134 179.097 572.97 178.441C578.753 181.843 582.116 184.739 582.116 188.524C582.116 190.641 581.761 192.117 581.105 192.813C580.585 193.36 579.532 193.647 578.001 193.647Z" fill="#1D1D1B"/>
</g>
<defs>
<clipPath id="clip0_65_182">
<rect width="628" height="246" fill="white"/>
</clipPath>
</defs>
</svg>
