<?xml version="1.0" encoding="UTF-8"?>
<svg xmlns="http://www.w3.org/2000/svg" version="1.1" viewBox="0 0 433.9 462.2">
  <defs>
    <style>
      .cls-1, .cls-2, .cls-3, .cls-4 {
        stroke: #171717;
      }

      .cls-1, .cls-2, .cls-3, .cls-4, .cls-5, .cls-6, .cls-7, .cls-8, .cls-9, .cls-10 {
        stroke-miterlimit: 10;
      }

      .cls-1, .cls-2, .cls-3, .cls-4, .cls-6, .cls-7, .cls-8, .cls-9, .cls-10 {
        stroke-linecap: round;
      }

      .cls-1, .cls-2, .cls-4, .cls-6, .cls-7 {
        fill: none;
      }

      .cls-1, .cls-6, .cls-8 {
        stroke-width: 6.4px;
      }

      .cls-11 {
        fill: #f1f1f1;
      }

      .cls-2, .cls-5, .cls-7 {
        stroke-width: 4.3px;
      }

      .cls-3, .cls-4 {
        stroke-width: 5.1px;
      }

      .cls-3, .cls-12 {
        fill: #ff852e;
      }

      .cls-13 {
        fill: #474747;
      }

      .cls-14 {
        fill: #171717;
      }

      .cls-5 {
        fill: #f9e08f;
        stroke: #000;
      }

      .cls-15 {
        fill: #ffebb6;
      }

      .cls-16 {
        fill: #000;
      }

      .cls-6, .cls-8, .cls-9, .cls-10 {
        stroke: #ff852e;
      }

      .cls-7 {
        stroke: #533f28;
      }

      .cls-17, .cls-8, .cls-9, .cls-10 {
        fill: #fbebdd;
      }

      .cls-18 {
        fill: #f8a35d;
      }

      .cls-9 {
        stroke-width: 5.6px;
      }

      .cls-10 {
        stroke-width: 5.6px;
      }
    </style>
  </defs>
  <!-- Generator: Adobe Illustrator 28.6.0, SVG Export Plug-In . SVG Version: 1.2.0 Build 709)  -->
  <g>
    <g id="Capa_1">
      <g>
        <g>
          <path class="cls-12" d="M316.9,439.8c-27.3,2.8-42,1.9-86,1.3-65.2-.8-58.1,1-89.1-.4-37.1-1.7-77.7-5.7-77.6-6.4,0,0,.9-.1,1.7-.1,0-.1,0-.3.1-.4-1.5-.9-3-1.7-4.5-2.7-9.4-6-15.4-14.6-19.5-24.8-3.6-8.9-5-18-2.5-27.4,2-7.6,5.6-14.1,13.1-17.6,5.8-2.8,11.9-2.6,18.1-1.3,2.3.5,4.5,1.2,6.7,2,.8.3,1.3.4,1.8-.5,3.4-5.3,7.8-9.4,13.1-12.8,1-.7.9-1.2.3-2.1-7.6-11.6-11-24.3-10-38.2.9-12.1,4.8-23.3,10.5-34,3.2-5.9,6.9-11.5,11-16.8.2-.3.4-.5.5-.7.1-.3.2-.6,0-.9h.4c3.5,3.5,7.2,6.9,11.1,10.1,0,0,.1.1.2.1,7.9,6.4,16.4,11.8,25.9,15.9.7.3,1.4.6,2.1.9,1.1.4,2.2.9,3.3,1.3,13.1,5,26.7,8,40.6,9.5,11.2,1.2,22.6,2,34,1,13.8-1.2,27-4,39.6-9.6,3.2-1.4,6.3-3,9.3-4.6,2.2-1.2,4.3-2.4,6.4-3.7,12.2-3,19-5.1,23.2-7.4,0,0,0,0,0,0,1-.6,1.8-1.1,2.5-1.7,0,0,0,0,.1,0,1.2-1,2-2.1,2.7-3.4.9-1.6,1.9-4.1,2-7.8,1.8.7,3.6,1,4.5.1,1.1-1,.1-3.1.6-3.3,1.6-.7,15.3,20.9,16.6,23.8,0,.2.4.9,1.1,1.4.4.3,1,.5,1.8.5,12.1.6,21.6,6.2,29,15.4,13.3,16.5,13.6,37.9,1,55.4-2.2,3-4.6,5.8-7.2,8.4-.3.3-.7.4-.7.9,1.4,0,2.9,0,4.3,0,10.6.6,17.9,6,21.5,16,3.3,9.2,3.1,18.3,0,27.4-3.6,10.8-9.3,20.1-18.5,26.9-1.8,1.3-3.6,2.4-5.5,3.4-.4.2-1.2.3-1,1,0,.1,0,.2.2.3.3.3,1.2.2,1.2.1,0,0-21.1,3.3-40.1,5.3-27.1,2.8-41.7,1.9-86,1.3-65.3-.8-58.2,1-89.1-.4-43.6-2-77.6-6.5-77.6-6.4,0,0,1.6.1,1.7-.1,0,0,0,0,0-.2,0-.2,0-.2,0-.2,0-.3-2.1-1.2-2.3-1.3,0,0-.2,0-2.2-1.4-13.3-8.3-19.5-24.8-19.5-24.8-2.2-5.9-6-15.8-2.5-27.4,1-3.5,4-13.3,13.1-17.6,6.8-3.2,15.2-2.5,18.1-1.3,2.2.9,4.6.9,6.7,2,.1,0,.6.3,1.1.2.4-.1.7-.5.7-.7,1-1.7,10.8-11.5,13.1-12.8.1,0,.7-.4.8-.9.1-.6-.4-1.1-.5-1.2-1.5-1.8-7.7-17.4-8.7-20.1-2.1-5.6-1.8-10.2-1.3-18.1.7-12.2,4.7-25.4,10.5-34,3.7-5.6,6.6-11.8,11-16.8.2-.3.3-.4.5-.7,0-.1.1-.3.1-.5,0-.2,0-.4,0-.4-.1-.6,4.4-3.3,6.8-1.5,0,0,0,0,.4.4,0,0,1.2,1.1,3.1,2.8,2.8,2.4,26.5,11.8,30.9,18.3.4.6,1.1,1.8,2.7,4.1,1,1.5,2.6,3.6,2.4,3.9-.1.1-.6-.2-1.8-.6-.2,0-.4-.1-.6,0-.4.2-.6.6-.6.8-.8,2.1-4.5,7-4.4,12.1,0,.2,0,.4,0,.8,0,2.3-1,4-1.2,4.5-1.3,2.6-1,7.4-.9,9,.5,8.8,18.9,9.7,25.4,23.5,2.6,5.4,2.4,11,2.3,13,0,2.7-.4,9.1-4.6,15.5-6.4,9.7-18.5,14-27.4,12.3-.4,0-1.1-.2-2.5-.6-5.8-1.4-11.3-2.8-17.1-5.5-2.5-1.2-5.4-2.6-8.7-5.3-.9-.7-9.8-8-11-10,0-.1-.4-.7-1-.8-.4,0-.8.2-.9.3-6.5,4.3-11.5,11-11.5,11-.1.2-.4.6-.4,1.1,0,.6.6.9.7,1,2.4,1.7,3.7,4.5,5.7,6.6,4.4,4.5,5.5,12.2,6.4,17.7.5,3.3.7,6.8,0,6.9-.2,0-.5-.2-.5-.2-.6-.4-.7-1.3-.7-1.4-.2-1.8-5.1-12.5-6.1-14.6-4.9-10-14.9-14.1-15.8-14.4-1.1-.4-4-1.5-7.8-1.7-2.8-.2-7.7-.6-12.2,2.3-.5.3-2.3,1.5-4.2,3.9-4.7,5.8-5.2,12.8-5.4,15.9-.9,14.8,7.3,25.9,9.7,29,4.6,6.2,9.4,9.4,10.6,10.2,2.7,1.7,4.8,2.7,6.7,3.5,12.6,5.5,21.7,3.8,23,3.1,0,0,.5-.3,1.1-.4,1.1-.2,2,.3,2.1.4,10.1,4.9,90.9,0,90.9,0,44-2.7,133.5,1.3,136.2,0,.1,0,1.1-.6,2.4-.4.8,0,1.4.4,1.5.5,2.1,1.1,7.3,0,7.5,0,15-3.2,16.9-3.6,20.3-5.6,3.1-1.8,5.2-3.7,6.4-4.8,10.2-9.2,13.3-20.6,14.2-24.6.7-3,1.8-8.2.7-14.6-.7-4.2-2-6.9-2.5-7.9-1.2-2.3-3.2-6.4-7.7-8.6-.4-.2-1.9-.9-4.6-1.3-2.1-.3-9.9-1.6-18,2.8-5.6,3.1-8.7,7.4-10.3,9.7-1.1,1.5-1.8,2.8-2.2,3.6-2.1,3.8-5.7,11.8-5.9,14.1,0,.2,0,1.1-.7,1.6,0,0-.4.3-.6.3-.9-.2-1.8-9,2.2-16.5,2.2-4.2,8.9-13.7,10.1-14.8,0,0,.5-.4.5-.9,0-.5-.4-1-.6-1.1-3.3-3.3-6.6-6.7-10-9.9-.4-.4-1.2-1.2-2.2-1-1.1.1-1.7,1.3-1.9,1.6-1.9,3.1-12.7,11.8-22.9,16.2-5.7,2.4-11.4,3.6-13.6,3.8-1.1,0-2,0-3.7.4-1.2.3-2.2.7-3.6.5-.5,0-.6-.1-1.4-.4,0,0-2.1-.6-7.2-1.2,0,0,0,0,0,0,0,0,0,0,0,0-17.4-9.9-20.5-20.9-20.5-20.9s-5.6-19.6,19-39.4c2-1.6,3.4-2.6,3.4-2.6,1.1-.8,1.7-1.1,3.3-2.2,1.7-1.2,2.5-1.8,2.9-2.2,1-1.4.8-3,.5-5,0,0-1.8-11.6-5.3-17.2,0-.1-.3-.5-.6-.9-1.1-1.7-1.7-2.6-2.2-3-1.6-1.4-3.9-.6-4-.9-.3-1.1,33-12,33.7-10,.3.8-5.1,4.8-10.9,6.6-3.5,1.1-6.5,3.5-10,4.6-.1,0-.6.2-.7.6-.1.4.2.8.2.9,1.2,1.8,5.5,18,5.7,20.6,0,.2,0,.8.4,1,.4.2.9,0,1.1,0,2.4-1,2.5-.2,6.1-1.6.8-.3,1.8-.8,2.5-.3,0,0,.2.2.3.4.2.7-1.1,1.6-1.7,2.1-4.1,2.9-8.3,4.7-12,7.5-.7.6-1.9,1.5-3.7,2.7-1.6,1-2.8,1.7-3.1,1.9-7.2,3.9-15.3,17.7-16.9,20.3-.4.6-1.2,2.1-.7,2.7,1,1.2,7.5-1,10.1-2.2.4-.2,1.9-.9,2.7-.4,0,0,.3.2.3.4.1.4-.2,1.1-2,2.4-1.7,1.3-2.9,1.9-2.9,1.9-2.3,1.3-6.3,3.4-8.3,3.8-.2,0-.8.1-1.1.6-.2.3-.2.7-.2.8.2,1.9,2.1,10.3,5.1,14.6.2.3.7,1,1.5,1.2.7.2,1.4,0,1.6-.1,1.8-.6,3.7-.8,5.5-1.3,7.7-2.3,5.3-1,6.3-1.4.2,0,.9-.4,1.4,0,0,0,.2.2.3.4.1.4-.3.9-.9,1.5-1.3,1.3-2.3,1.7-2.3,1.7-4.2,1.9-6.4,2.9-6.4,3.4,0,1.1,6.4,2.5,13.7,2.4,14.2-.1,21.7-5.7,22.6-7,0,0,1-1.5,1.2-1.3,0,0,0,.2.1.2.1,0,.4,0,.5-.1,5.1-3.2,6.8-4.9,6.8-4.9,3.5-3.7,3-2.6,5.7-5.5,3.5-3.9,4.9-6.4,6.5-8.6,0,0,.3-.4.5-.8,0,0,0,0,0,0,.2-.4,3.6-7.2,4-7.9,1.7-3.4,2.4-7.1,2.9-10.1,1.9-9.9,0-19.6-.7-23.7-4-21-13.7-28.7-18.4-37.5,0,0-.8-1.5-1.4-1.3-.5.1-.5,1.1-1.5,1.5-.2,0-.3.1-.3.1-1.6.5-7.2,5.5-7.1,5.5,0,0,.8-.7,1.6-1.6,0,0,.7-.8,1.2-1.8,1.6-2.9.4-6.8,2-7.8,1.4-.9,3.3,1.1,4.5.1,1.1-.9.1-3,.6-3.3,1.6-.7,15.3,20.9,16.6,23.8,0,.2.4.9,1.1,1.4.8.5,1.6.5,1.8.5,4.1,0,8.1,1.9,12.2,2.6,7.5,1.3,14.6,10,16.9,12.9,2.1,2.6,8.9,11.2,10.1,24.2,1.4,15.3-5.8,27.9-9,31.1-2.6,2.6-4.4,6.1-7.2,8.4-.2.2-.7.6-.6.9.2.6,3.1.2,4.3,0,6.3-.7,12.1,3.5,13.3,4.4,5.1,3.7,7,8.6,8.3,11.6.3.8,1.8,4.5,2.2,9.9.7,7.9-1.1,14-2.2,17.5-5.2,17-17,25.9-18.6,27-3.3,2.2-4.9,3.3-5.5,3.4,0,0-.9.2-1,.6,0,.2,0,.4,0,.4s0,.2.2.3c.3.3,1.2.2,1.1.2,0,0-20.9,3.3-40.1,5.3Z"/>
          <g>
            <g>
              <path class="cls-13" d="M417.3,175.1c-.3.4-1.5,0-1.9-.1-3.8-1.2-11.9-1-17.2.1-2.2.4-3.3.6-3.8,1.1-2.6,2.3-.6,7-.5,17.5,0,1.5,0,2.9,0,5.4-17.8-18.9-39-29.6-62.9-35.4-1.8-.4-3.7-.9-5.6-1.2-12.5-2.5-25-3.2-37.7-2.2-3.4.3-6.6,1.1-9.3,2.6-4.8-2.7-10-3.4-15.6-1.8-12.2,3.4-23.5,7.9-33.8,13.6,2.3-5.8,4.7-11.5,6.9-17.4,8.1-9.6,13.9-21,23-29.9.7-.7,1.3-1.2,2-1.9,4.6-4.4,9.5-8.4,14.4-12.5,3.8-3.2,6.5-3.6,8.9,1.4,1.3,2.9,3.4,5.3,5.1,7.9,0,0,0,.2.1.3.4.7.7,1.2,1.2,1.5,1,.7,2.1.7,2.6.7,2.2,0,4.3.3,6.5,0,1.9-.4,5.6-.5,10.3-.4,7.9,0,18.1.7,25.9,1.8,6.7,1,16.3,2.9,27.4,7,7.7,2.7,17.1,6.8,26.7,13.4,4,2.8,7.6,5.6,10.6,8.3h0c0,0,11.1,10.8,16.4,19.2.2.3.5.8.3,1.1Z"/>
              <path class="cls-13" d="M366.5,242.3v1.7c0,4.3-.1,15.7-2.1,23.5,0,.3-.2,1-.6,1-.5,0-1-1.1-1.2-1.4-1.8-3.6-7.7-9.2-12.3-12.2-1.8-1.2-2.8-1.9-3.4-2-3.4-.2-5.4,4.5-12.8,12-1,1-2,2.1-3.8,3.9,1-28-7.6-52.2-22.2-74.5-7-10.6-15.3-20-25-28.2-1.5-1.3-3.1-2.4-4.7-3.2-4.8-2.7-10-3.4-15.6-1.8-12.2,3.4-23.5,7.9-33.8,13.6,2.3-5.8,4.7-11.5,6.9-17.4,8.1-9.6,13.9-21,23-29.9.7-.7,1.3-1.2,2-1.9,8.4-1.4,16.7-3.1,25.2-3,1.1,0,2.2,0,3.3,0,6.2.2,12.3.7,18.4,1.3.8,0,1.5.1,2.1.4,3.4.7,4.7,2.5,3.2,6.9-1,2.9-1.3,6.2-2,9.2-.3.8-.4,1.5-.3,2.2.2,1.2,1,1.9,1.4,2.3,1.5,1.5,2.8,3.2,4.5,4.5,2.6,1.8,8.4,7.8,14.2,14.3,3.7,4.2,7.4,8.5,10.3,12.3,4.1,5.5,9.5,13.6,14.4,24.4,3.5,7.4,7.2,16.9,9.2,28.5.9,4.8,1.4,9.2,1.6,13.4Z"/>
            </g>
            <g id="Ghlzsn.tif">
              <g>
                <path class="cls-12" d="M78.5,175.7h0c0-.4,0-.8.2-1.1,0,.4-.1.8-.2,1.1Z"/>
                <path class="cls-17" d="M319.9,218.1c-1.3,5-4.7,8.9-7.2,13.2-7.4,12.5-17.2,22.7-28.8,31.3-13.8,10.4-28.8,18.4-45.9,21.7-15.1,2.9-30.3,4.1-45.6,2-9.2-1.2-18.5-2.2-27.5-4.9-15.5-4.7-30.5-10.7-43.1-21.2-15.4-12.8-28-27.8-36.1-46.2-2.7-6.2-5.1-12.6-6.7-19.1-1.5-6.3-2-12.8-.4-19.3.4-.5.9-1,1.3-1.5,3.8-4.4,8.2-7.9,14.1-8.6,8.4-1.1,16.5,0,24.4,3,8.8,3.4,16.6,8.4,24.3,13.7,6.7,4.7,13.4,4.5,20.1.2,4.7-3,9.1-6.4,13.7-9.4,16-10.5,36.7-8.4,50.5,4.8,4.4,4.2,7.9,9.2,12.2,13.5,5.6,5.6,12,7.5,19.6,4.5,2.5-1,5-1.9,7.4-2.8,9.7-3.5,19.6-6,30-5.3,11.8.8,21.4,4.8,26.4,16.4.4,4.9-1.6,9.4-2.8,14Z"/>
                <path class="cls-12" d="M78.5,175.7h0c0-.4,0-.8.2-1.1,0,.4-.1.8-.2,1.1Z"/>
                <path class="cls-12" d="M329.9,187.1c-2.9-12-11-20.4-20.2-27.9-2.1-1.7-3.3-3.4-3.5-6.1-.9-9.7-3.2-19-7.7-27.7-.4-.8-.6-1.6-.5-2.5.4-3.3.8-6.6,1.2-9.9h0c.2-2,.5-3.9.7-5.9,1.2-12.4.4-24.7-2.1-36.9-2-9.8-3.9-19.6-8.2-28.7-3.3-7.2-11.1-8.6-16-2.4-5.3,6.7-10.8,13.2-16.1,19.9-4.5,5.7-9,11.4-13.6,17-1.9,2.3-3.9,3-6.6,1.8-1.5-.6-3.1-1.1-4.7-1.4-13.9-3.4-27.9-5.1-42.2-4-3.2.2-4.6-1-5.8-3.6-6.6-14.1-13.4-28.1-20.1-42.1-3.8-7.8-11.5-8.3-16.6-1.3-2.3,3.1-4.3,6.3-6.3,9.6-5.3,9.3-9.6,19.1-13.2,29.1-4.4,12.1-5.8,24.9-7.1,37.7,0,.9-.2,1.7-.8,2.4-6.8,7.8-11.2,16.9-14.6,26.6-.5,1.4-1.1,2.7-2.6,3.3-4.9,1.9-9.2,4.8-13.6,7.7-7.5,4.9-13,11.5-16.1,20-5.3,14.1-5.6,28.2-.4,42.3,7,18.5,16.2,35.7,30,50.2,11.8,12.4,25.2,22.5,41.1,29,14.1,5.8,28.9,9.1,43.9,10.7,11.2,1.2,22.6,2,34,.9,13.8-1.2,26.9-4,39.6-9.6,11-4.9,21.2-11.2,30.4-18.9,9.3-7.7,17.3-16.8,24.4-26.6,5-6.9,9.7-14,12.1-22.4,2.8-10.1,3.8-20.1,1.3-30.3ZM322,191.5c.2.6.3,1.2.4,1.8-.1-.6-.3-1.2-.4-1.8-.3-1.1-.6-2.1-.9-3.2.3,1,.7,2.1.9,3.2ZM253.4,89c4-4.1,8.3-8.1,12-12.6,3.8-4.6,7.3-9.4,11-14.1.5-.7,1-1.8,2.1-1.5,1,.3,1.1,1.4,1.3,2.3,1.5,8.3,4,16.4,4.5,24.9.4,6.3.3,12.6-.8,19.5-.3,1.3-.4,3.4-1,5.3-.7,2-1.2,2.1-2.6.5-5.8-6.7-12.3-12.8-19.8-17.6-2-1.3-4.1-2.5-6.2-3.5-2.2-1-1.9-1.9-.5-3.3ZM231,141.5c2.2-5.1,6.5-7.7,11.4-9.5.8-.3,1.9,0,2.1,0,5,.7,6.6,3.2,5,7.3-2.2,5.5-6.5,8.9-12.2,10.3-2.4.6-4.9.5-6.5-1.7-1.5-2.1-.7-4.3.2-6.3ZM182.3,139.4c-.5,2.6-2.7,4-5.6,3.5-4.9-.9-7.7-4.4-10.1-8.3-1.1-1.7-1.8-3.6-1.9-5.7-.3-4,1.8-6.1,5.8-5.7,6.4.7,13.1,9.9,11.9,16.2ZM139.1,87.4c1.1-11.1,4.7-21.4,9.9-31.3,1.4-2.7,2.6-5.6,3.9-8.3.4-.7.8-1.7,1.8-1.7.9,0,.9,1.1,1.2,1.8,4.9,11,10,21.9,16.8,31.9,1,1.4.9,2.4-1.2,2.8-10.6,2.3-19.9,7.3-28.8,13.4-.6.4-1.1.8-1.7,1.2-1.4.9-2.2,1-2.4-1.1-.3-2.9.4-5.8.6-8.7ZM319.9,218.1c-1.3,5-4.7,8.9-7.2,13.2-7.4,12.4-17.2,22.7-28.8,31.3-13.8,10.4-28.8,18.4-45.9,21.7-15.1,2.9-30.3,4.1-45.6,2-9.2-1.2-18.5-2.2-27.5-4.9-15.5-4.7-30.5-10.7-43.1-21.2-15.4-12.8-28-27.8-36.1-46.2-2.7-6.2-5.1-12.5-6.7-19.1-1.5-6.3-2-12.8-.4-19.3h0c0-.4,0-.8.2-1.1,0,.4,0,.8-.2,1.1.5-.5.9-1,1.3-1.5,3.8-4.4,8.2-7.9,14.1-8.6,8.3-1.1,16.5,0,24.4,2.9,8.8,3.4,16.6,8.4,24.3,13.7,6.7,4.7,13.4,4.5,20.1.2,4.7-3,9.1-6.4,13.8-9.4,16-10.5,36.7-8.4,50.5,4.8,4.4,4.2,7.9,9.2,12.2,13.5,5.6,5.6,12.1,7.5,19.6,4.5,2.5-1,4.9-1.9,7.5-2.8,9.7-3.5,19.6-6,30-5.3,11.8.8,21.4,4.8,26.4,16.4.4,4.9-1.6,9.4-2.8,14Z"/>
                <path class="cls-17" d="M283.6,107.6c-.3,1.3-.4,3.4-1.1,5.3-.7,2-1.2,2.1-2.6.5-5.8-6.7-12.3-12.8-19.8-17.6-2-1.3-4.1-2.5-6.2-3.5-2.2-1-1.9-1.9-.5-3.3,4-4.1,8.3-8.1,12-12.6,3.9-4.6,7.3-9.4,11-14.1.6-.7,1-1.8,2.1-1.5,1,.3,1.1,1.4,1.3,2.3,1.5,8.3,4,16.4,4.5,24.9.4,6.3.3,12.6-.8,19.5Z"/>
                <path class="cls-17" d="M139.1,87.4c1.1-11.1,4.7-21.4,9.8-31.3,1.4-2.7,2.6-5.6,3.9-8.3.4-.7.8-1.7,1.8-1.7.9,0,.9,1.1,1.2,1.8,4.9,11,10,21.9,16.7,31.9,1,1.4.9,2.4-1.2,2.8-10.6,2.3-19.9,7.3-28.8,13.4-.6.4-1.1.8-1.7,1.2-1.4.9-2.2,1-2.4-1.1-.3-2.9.4-5.8.6-8.7Z"/>
                <path class="cls-17" d="M244.5,131.9c5,.7,6.6,3.2,5,7.3-2.2,5.5-6.5,8.9-12.2,10.3-2.4.6-4.9.5-6.5-1.7-1.5-2.1-.7-4.3.2-6.3,2.2-5.1,6.5-7.7,11.4-9.5.8-.3,1.8,0,2.1,0Z"/>
                <path class="cls-17" d="M170.4,123.2c6.4.7,13.1,9.9,11.9,16.3-.5,2.6-2.7,4-5.6,3.5-4.9-.9-7.7-4.4-10.1-8.3-1.1-1.7-1.8-3.6-1.9-5.8-.3-4,1.8-6.1,5.8-5.7Z"/>
                <path class="cls-11" d="M276.9,168.4c-.8.8-14.9,14-31.5,9.3-7.2-2.1-11.9-6.6-14.1-9.3.6-1.1,7.1-12.1,20.1-13.4,10.1-1,20.2,4.2,25.6,13.4Z"/>
                <path id="eye-left" cx="150" cy="150" r="20" class="cls-16" d="M263.6,168.4c-.1.2-.2.3-.3.5-4.9,7.2-16.7,8.8-23.5,3.5-1.6-1.2-2.7-2.6-3.5-4-1-1.7-1.6-3.3-1.8-4.5,1.3-1.5,7.1-7.9,16.8-9,6.9-.7,12.2,1.6,14.3,2.8.3,1.9.6,6.5-1.9,10.7Z"/>
                <path class="cls-11" d="M131.2,163.6c.8.8,14.9,14,31.5,9.3,7.2-2.1,11.9-6.6,14.1-9.3-.6-1.1-7.1-12.1-20.1-13.4-10.1-1-20.2,4.2-25.6,13.4Z"/>
                <path id="eye-right" cx="150" cy="150" r="20" class="cls-16" d="M144.9,163.6c.1.2.2.3.3.5,4.9,7.2,16.7,8.8,23.5,3.5,1.6-1.2,2.7-2.6,3.5-4,1-1.7,1.6-3.3,1.8-4.5-1.3-1.5-7.1-7.9-16.8-9-6.9-.7-12.2,1.6-14.3,2.8-.3,1.9-.6,6.5,1.9,10.7Z"/>
                <path class="cls-7" d="M231.3,167.1c.6-1.1,7.1-12.1,20.1-13.4,10.1-1,20.2,4.2,25.6,13.4"/>
                <path class="cls-7" d="M131.2,161.6c.6-1.1,7.1-12.1,20.1-13.4,10.1-1,20.2,4.2,25.6,13.4"/>
              </g>
            </g>
            <g id="KZEtDz.tif">
              <path class="cls-13" d="M314.4,161.9c-.3-.4-.7-.7-1.2-1.1-3.9-2.9-7.9-5.7-12.1-8.2-25.5-15.7-46.2-19.7-46.2-19.7-3-.9-11.3-3.3-23-5.6-14.1-2.8-34-5.6-58.6-5.5-13.7,1.1-25.5,2.7-34.9,4.2-23.9,3.8-35.2,8.8-47.1,14.9-.6.3-1,.6-1.4.9,3.8-18.3,12-34.9,23.3-48.7,1.1-.4,1.9-.8,2.8-1.1,24.8-9.4,50.5-11.6,76.7-10.7,18.5.6,36.8,3,54.8,7.3,15,3.6,29.5,8.6,43.1,15.9,3.1,1.7,6.1,3.5,9.3,5.3,8.7,15.6,13.9,33.4,14.3,52.2Z"/>
            </g>
          </g>
          <path class="cls-12" d="M300.8,269.5c.9-.5,1.6-1,2.3-1.6-.7.6-1.5,1.1-2.3,1.6ZM344.9,360c-.2.2-.5.2-.7.3,0,0,0,0-.1,0,0,.3-.2.5-.4.1-.5,1-1,1.3-1.8.2-3.3-4.8-7.7-8.5-12.4-11.7-1.1-.8-1.2-1.3-.4-2.4,1.8-2.6,3.2-5.3,5.1-7.8,2.2-3,3.6-6.4,3.9-10.1.6-6.9,1.6-13.8.9-20.7-.5-5.2-1.4-10.2-2.9-15.2-.2-.6-.3-1.2-.4-1.8-.6-1.8-1.3-3.5-2-5.3-.4-1.1,0-1.2,1-1.1,6.7.9,12.7,3.5,17.7,8,6.1,5.4,10.4,12,12.6,19.9,3,10.9,1,21.2-4.6,30.8-3.9,6.6-9.2,11.9-15.3,16.5ZM88.2,306.3c1.8-15.2,8.3-28.6,17-41,.8-1.2,1.7-2.3,2.5-3.4,1.4-1.8,1.5-1.8,2.9.3,3.6,2.6,7.1,5.5,10.8,7.9,6.3,4.1,12.8,7.7,19.7,10.5.9.4,1.5.6.9,1.8-3.3,6.3-5,13.2-5.6,20.2-.1,1.4-.6,1.5-1.8,1.1-2.5-.8-4.9-1.3-7.4-1.9-.5-.1-1.1-.3-1.4.2-.3.6.3.9.7,1.2,3.5,3,7.5,5.3,11.5,7.6,1.9,1.1,3.9,1.9,5.4,3.6.1,0,.3,0,.3,0,8.9,6.1,16.3,13.4,20.1,23.8.1.3.2.6.3,1.2-2.5-.6-4.9-1.1-7.2-1.6-1.6-.4-3.2-.7-4.8-1-.5-.1-1.1-.3-1.4.3-.2.6.3.9.6,1.3,3,2.7,6.5,4.7,10.3,6.1,3.9,1.5,4,1.5,3.2,5.7-.8,4.2-2.2,8.2-5,11.6-.7.9-1.3,1.1-2.5.8-4-1-7.9-1.9-11.9-2.8-.6-.1-1.5-.5-1.8.3-.4.8.4,1.2.9,1.6,2.4,2.2,5.4,3.5,8.4,5-1.5,1-3.1,1.4-4.8,1.8-7.5,1.6-14.8.5-21.9-2-3.2-1.1-6.3-2.5-9.3-4.3-.5-.3-1.2-.6-1.3-1.3-.9-.1-1.1-.2-2-.8-5.2-3.5-9.9-7.8-13.8-12.7-1.7-2.1-3.4-4.2-4.6-6.7-6.3-10.7-8.6-22.3-7.2-34.6ZM259.9,281.3c2.5-.6,4.8-1.1,7-1.6-3.6.3-8.1,1.8-8.7,2.1.3,0,1.5-.4,1.7-.4Z"/>
          <path class="cls-12" d="M360.2,343.4c-3.9,6.6-9.2,11.9-15.3,16.5-.2.2-.5.2-.7.3,0,0,0,0-.1,0,0,.3-.2.5-.4.1-.5,1-1,1.3-1.8.2-3.3-4.8-7.7-8.5-12.4-11.7-1.1-.8-1.2-1.3-.4-2.4,1.8-2.6,3.2-5.3,5.1-7.8,2.2-3,3.6-6.4,3.9-10.1.6-6.9,1.6-13.8.9-20.7-.5-5.2-1.4-10.2-2.9-15.2-.2-.6-.3-1.2-.4-1.8-.6-1.8-1.3-3.5-2-5.3-.4-1.1,0-1.2,1-1.1,6.7.9,12.7,3.5,17.7,8,6.1,5.4,10.4,12,12.6,19.9,3,10.9,1,21.2-4.6,30.8Z"/>
          <path class="cls-4" d="M79.1,361.7s17.1,9.6,16.4,34"/>
          <path class="cls-17" d="M81.3,424c-1.6,1.6-5.3,5.4-10.5,5.6-5.5.2-9.6-3.8-13.2-7.4-1.4-1.3-7.4-7.5-11.1-18.6-2.2-6.5-4.5-13.7-2-22.1.8-2.8,3.1-10.4,10.5-14.2,6.4-3.3,12.6-1.8,13.8-1.5,10.7,2.7,15.4,14,17.2,18.3,5.5,13,4.7,30.4-4.6,40Z"/>
          <path class="cls-17" d="M280,363c2.4,5.1,8.3,17.5,4,30.3-4.5,13.4-17.7,19.5-29.5,25-4.4,2.1-24.6,11.1-54.6,10-17.6-.6-36.9-1.3-54.8-14.9-5.9-4.4-22.1-16.7-24.6-37.9-2.2-18.2,6.9-31.9,8.6-34.4,16-23.3,47.3-24.5,59.2-25,36-1.5,77,15.7,91.8,46.9Z"/>
          <path class="cls-4" d="M359.2,359.3c-3.6.7-13.3,3.1-21.6,11.7-9.5,9.8-11.1,21.3-11.5,24.7"/>
          <path class="cls-17" d="M340.2,424c1.6,1.6,5.3,5.4,10.5,5.6,5.5.2,9.6-3.8,13.2-7.4,1.4-1.3,7.4-7.5,11.1-18.6,2.2-6.5,4.5-13.7,2-22.1-.8-2.8-3.1-10.4-10.5-14.2-6.4-3.3-12.6-1.8-13.8-1.5-10.7,2.7-15.4,14-17.2,18.3-5.5,13-4.7,30.4,4.6,40Z"/>
          <path class="cls-12" d="M363,343.4c-3.9,6.6-9.2,11.9-15.3,16.5-.2.2-.5.2-.7.3,0,0,0,0-.1,0,0,.3-.2.5-.4.1-.5,1-1,1.3-1.8.2-3.3-4.8-7.7-8.5-12.4-11.7-1.1-.8-1.2-1.3-.4-2.4,1.8-2.6,3.2-5.3,5.1-7.8,2.2-3,3.6-6.4,3.9-10.1.6-6.9,1.6-13.8.9-20.7-.5-5.2-1.4-10.2-2.9-15.2-.2-.6-.3-1.2-.4-1.8-.6-1.8-1.3-3.5-2-5.3-.4-1.1,0-1.2,1-1.1,6.7.9,12.7,3.5,17.7,8,6.1,5.4,10.4,12,12.6,19.9,3,10.9,1,21.2-4.6,30.8Z"/>
          <path class="cls-17" d="M361.8,345.3c-.4.6-.8,1.3-1.3,1.9,0,0-6,8.3-12.8,12.7-.3.2-.6.3-1.1.7-.6.5-.7.8-1.1.8-.5,0-.8-.6-.9-.7-3.3-4.8-7.7-8.5-12.4-11.7-1.1-.8-1.2-1.3-.4-2.4,1.8-2.6,3.2-5.3,5.1-7.8,2.2-3,3.6-6.4,3.9-10.1.1-1.9.3-3.8.5-5.7l6.1,8.5.5-.2,10.5-4,3.4,18Z"/>
          <polygon class="cls-17" points="433.9 342.1 433.4 342.3 427.3 333.8 433.9 342.1"/>
          <g id="ECOQTg.tif">
            <g>
              <path class="cls-5" d="M293.6,336.1c15.2,30.9-9,69.6-43.4,70.2-4.7,0-8.1.1-11.2,5.1-10,15.9-35.8,20.6-51.3,9.3-6.5-4.8-13.2-7.7-20.8-7.3-26.4,1.2-49.8-29.6-48.4-53.2.3-3.4-.4-7.4,1.2-10.1,7.9-13.5,5.3-27.2,3.8-41.8-1.8-17.5,4.4-36,15.4-50.7,5.2,3.8,11.5,6.1,18.4,6.1s9.7-1.2,13.8-3.2c5.7,7.3,14.6,12.1,24.6,12.1s20.1-5.4,25.8-13.7c4.8,3.1,10.5,4.8,16.6,4.8s5.8-.4,8.5-1.2c4.5,11.5,15.8,19.7,28.9,19.7s19.6-5.1,25.2-12.9c4.5,13.8,2.9,29.5-5.6,41.6-6,8.5-6,16-1.5,25.2Z"/>
              <path class="cls-15" d="M249.7,300.6c-4.9,2.9.4,13.1-9.3,12.8-9-.2-12.4-7.6-14-14.1-1.1-4.6,2.4-11.3,8.8-10.7,6.4.6,11.8,4.6,14.5,12Z"/>
              <path class="cls-15" d="M259.8,361.2c-2.9,5.7-7.9,9.6-14.2,10.9-3.7.8-7.2-2.8-5.8-6.1,2.6-6.2,9.1-8.3,15.2-9.9,2.8-.7,4.7,1.5,4.8,5.1Z"/>
              <path class="cls-15" d="M176.6,312.1c-2.5,5.8-3.6,15.1-12.5,15.5-4.9.2-12.1-3.1-12.8-10.6-.6-6.2,10.7-18.6,16.5-18.3,7.8.4,8.1,6.6,8.8,13.4Z"/>
              <path class="cls-15" d="M160.2,396.7c-9.4-4.1-24.4-5.8-25-20.1-.3-7.9,4.9-19.6,17.1-20.6,10-.9,30,17.2,29.5,26.5-.6,12.6-10.6,13.1-21.6,14.2Z"/>
              <path class="cls-15" d="M221.4,390.7c1.5,5.9,6.2,13.6-.3,19.1-3.6,3-11,4.8-16-.5-4.1-4.4-2.9-20.4,1.7-23.6,6.2-4.3,10,.2,14.6,5Z"/>
              <path class="cls-15" d="M210.6,328c-2.1,4-3.2,10.4-9.5,10.3-3.4,0-8.4-2.7-8.5-8,0-4.4,8.3-12.5,12.4-12.1,5.5.6,5.4,5,5.5,9.8Z"/>
              <path class="cls-15" d="M282.9,311c-2.1,4-3.2,10.4-9.5,10.3-3.4,0-8.4-2.7-8.5-8,0-4.4,8.3-12.5,12.4-12.1,5.5.6,5.4,5,5.5,9.8Z"/>
              <path d="M135.6,372c2.4,15.5,16.7,25.8,32,22.5,4.8-1.1,9.3-3.4,13.1-6.7-3.2,3.9-7.7,6.8-12.7,8.3-15.9,4.6-32.6-7.4-32.4-24.1h0Z"/>
              <path d="M226.2,301.2c1.2,8.6,10.7,13.6,18.4,9.5,1.1-.5,2-1.2,2.9-2-.7.9-1.7,1.7-2.7,2.4-7.8,5.2-18.8-.5-18.7-9.9h0Z"/>
              <path d="M238,368.5c8.7,6.6,20.6.9,21.4-9.9.2,2.5-.4,5.1-1.7,7.3-3.9,7-14.2,8.5-19.7,2.6h0Z"/>
              <path d="M154.9,323.2c8.7,6.6,20.6.9,21.4-9.9.2,2.5-.4,5.1-1.7,7.3-3.9,7-14.2,8.5-19.7,2.6h0Z"/>
              <path d="M201.8,397.4c-1.6,6.5,1.5,14.4,8.1,16.3,6.7,1.8,13.2-3.8,14.9-10.3,0,7.5-7.9,14.5-15.5,12.4-7.6-2.2-11.1-11.8-7.5-18.4h0Z"/>
              <path d="M265.5,310.7c-1,4,.9,8.7,4.9,9.9,4,1.1,8-2.3,9-6.2,0,4.5-4.7,8.8-9.4,7.5-4.6-1.3-6.7-7.1-4.6-11.1h0Z"/>
              <path d="M210,322.2c2.1,5.3.8,12.2-4.2,15.5-1.3.8-2.9,1.3-4.4,1.1-4.4-.6-7.6-4.7-8.7-8.7,1.9,3.4,4.9,6.8,8.9,7.3,1.2.1,2.4-.2,3.5-.9,4.5-3,5.8-9,5-14.2h0Z"/>
            </g>
          </g>
          <path class="cls-3" d="M95.5,347.3s29.1,32,52.3,23.6c3.8-1.4,11.5-5.7,15.5-14.6,4.7-10.5.9-20.8-.9-25.6-6.7-18-23.3-26.3-29.5-29.4-5.2-2.6-9.8-4-13-4.9"/>
          <path class="cls-4" d="M120.6,287.5c3.4,4.5,6.8,8.9,10.1,13.4-5.9-2.4-11.7-4.8-17.6-7.3"/>
          <path class="cls-3" d="M318.7,350.7c-5.2,3.3-12,7.3-20.4,11.3-14.3,6.8-18.1,6.5-20.3,6-9.9-2.1-14.8-12.9-15.5-14.6-4.7-11-.7-21.5.9-25.6,4.7-12.1,13.8-18.7,21-23.8,8.1-5.8,15.7-9,21.1-10.7"/>
          <path class="cls-4" d="M302.9,284.9c-3.2,4.6-6.4,9.2-9.6,13.8,5.8-2.6,11.5-5.3,17.3-7.9"/>
          <path class="cls-18" d="M37.3,437.4"/>
          <path class="cls-2" d="M332.6,279.1c3.4,6.9,9.6,22.1,7.8,41.7-1.1,12.4-5.1,22.1-8.2,28.2"/>
          <path class="cls-2" d="M332.6,349.1c1.7.5,5,1.7,8.1,4.6,3,2.9,4.3,6,4.9,7.7"/>
        </g>
        <path class="cls-4" d="M400.6,154.8h0c-3.1-2.8-6.7-5.6-10.6-8.4-9.6-6.6-19-10.7-26.7-13.4-11.2-4.2-20.7-6.1-27.4-7-7.8-1.1-18-1.7-25.9-1.8-.7-.2-1.3-.3-2.1-.4-.4,0-.8,0-1.1,0-1.9-4.8-4.1-9.5-6.6-14-.2,0-.3-.2-.5-.3,0-.8.2-1.6.3-2.4,1.2-12.4.4-24.7-2.1-36.9-2-9.8-3.9-19.6-8.1-28.7-3.3-7.2-11.1-8.6-16-2.4-5.3,6.7-10.8,13.3-16.1,19.9-4.5,5.7-9,11.4-13.6,17-1.9,2.3-3.9,3-6.6,1.8-1.5-.6-3.1-1.1-4.6-1.4-13.9-3.4-27.9-5.1-42.2-4-3.2.2-4.6-1-5.8-3.6-6.6-14.1-13.4-28.1-20.1-42.1-3.8-7.8-11.5-8.3-16.6-1.3-2.3,3.1-4.3,6.3-6.3,9.6-5.3,9.3-9.6,19.1-13.2,29.1-3,8.3-4.6,16.9-5.8,25.6-2.2.7-4.3,1.4-6.5,2.3-.9.3-1.8.7-2.8,1.1-11.3,13.7-19.4,30.2-23.3,48.4-.1,0-.2.1-.3.2-7.5,4.9-13,11.5-16.1,20-4.9,13-5.6,26-1.5,39,.1,2.1.6,4.2,1.5,6.1.6,1.3,1.3,2.5,2.1,3.5,3.9,9.4,8.4,18.3,13.9,26.7,2.4,8.3,7.9,15.1,14.9,18.6.2.2.4.4.5.5h-.5c0,.1,0,.1,0,.1h0c0,.3,0,.6,0,.9,0,.2-.2.5-.5.7-4.2,5.2-7.9,10.9-11,16.8-5.7,10.7-9.6,21.9-10.5,34-1,13.9,2.4,26.6,10,38.2.3.4.4.7.4,1,0,0,0,.1,0,.1,0,.3-.3.6-.8,1-5.2,3.4-9.7,7.5-13.1,12.8,0,0,0,0,0,0h0s0,0,0,0c-.5.8-1,.8-1.8.5-2.2-.9-4.4-1.5-6.7-2-6.1-1.3-12.2-1.4-18.1,1.3-2.3,1.1-4.2,2.5-5.8,4.1-3.7,3.6-5.9,8.3-7.3,13.5-.2.9-.4,1.8-.6,2.7-1,5.4-.8,10.7.4,15.9.6,3,1.5,5.9,2.7,8.8,4.1,10.2,10.1,18.8,19.5,24.8,1.5.9,3,1.8,4.5,2.7,31.8,4.7,57.6,6.3,75.9,6.9,13.2.4,30,.5,62.7.5,8.8,0,17.6,0,26.3,0,9.9,0,19.8-.2,29.7-.3,9-.1,18-.3,27-.4,32.4-.6,26.9-.6,29.3-.6,0,0,28.6.2,38.8-6.1,0,0,.4-.3.9-.6,1.7-.9,3.4-1.9,5-3.1.2-.1.4-.2.5-.4,0,0,0,0,0,0,0,0,0,0,0,0,8.1-6,13.5-13.9,17.1-23,.5-1.3,1-2.6,1.5-4,2.8-8.5,3.2-17,.6-25.5-.2-.6-.4-1.3-.6-1.9-1.9-5.3-4.9-9.3-8.9-12-3.5-2.4-7.7-3.8-12.7-4-1.4,0-2.9,0-4.3,0,0-.1,0-.2,0-.3.1-.3.4-.4.6-.6,2.6-2.6,5-5.4,7.2-8.4,2.4-3.3,4.3-6.7,5.7-10.2,6.3-15.1,4-31.8-6.8-45.2-7.5-9.2-17-14.8-29.1-15.4-.4,0-.7,0-1-.1,0,0,0,0,0,0-.3,0-.5-.2-.8-.4-.7-.5-1-1.2-1.1-1.4-.2-.5-.8-1.5-1.6-2.9-4-6.7-13.6-21.5-14.9-20.9-.1,0,0,.4-.1.5-.2,0-.8-1.7-1.1-2.8-.2-1.1-.4-3.1.5-5.8,1.4-1.8,2.7-3.6,4.1-5.4,2.9-4,5.6-7.9,7.9-12.2,4.2,12.8,6.3,26.5,5.8,41.1,1.8-1.8,2.9-2.9,3.8-3.9,7.4-7.5,9.4-12.3,12.8-12,.7,0,1.6.7,3.4,2,4.5,3,10.5,8.6,12.3,12.2.2.3.7,1.5,1.2,1.4.4,0,.5-.7.6-1,1.9-7.8,2.1-19.2,2.1-23.5v-1.7c-.2-4.1-.7-8.6-1.6-13.4-2.1-11.5-5.7-21.1-9.2-28.5-4.9-10.9-10.3-18.9-14.4-24.4-2.9-3.8-6.5-8.1-10.3-12.3,23.8,5.8,45,16.6,62.9,35.4,0-2.6,0-4,0-5.4,0-10.5-2.1-15.3.5-17.5.5-.5,1.6-.7,3.8-1.1,5.4-1.1,13.4-1.4,17.2-.1.4.1,1.6.6,1.9.1.2-.3,0-.8-.3-1.1-5.2-8.4-16.4-19.1-16.4-19.1Z"/>
        <path d="M19.5,438.3c127.4-5.9,255.1-5.9,382.4,0-127.4,5.9-255.1,5.9-382.4,0h0Z"/>
        <path class="cls-4" d="M300.1,109.8c3,6.2,6.4,14.8,8.4,25.4,1.5,8.2,1.8,15.6,1.5,21.4"/>
        <path class="cls-4" d="M311.8,156.9c3.5.9,7.2,2,10.9,3.1,5.6,1.8,10.8,3.6,15.6,5.6"/>
      </g>
      <g>
        <path class="cls-14" d="M222.8,194.3c-.8,3.7-2.9,6.6-5.3,9.3-2.8,3.1-5,5.7-8.7,6.6-1.5.4-4,.5-7.1,2.2-.8.4-1.3.8-1.8,1.1-.4.6-.6,1.2-.8,1.6-.1.3-.2.6-.2.9,0,.5-.1,1-.1,1.7,0,.6.1.8.2,1,.3.6,1,.9,1.3,1,0,0,0,0,.1,0-2.3,2.4-4.3,1.5-5.7-.1.1,0,.2-.1.2-.1.7-.4,1-1.1,1-1.1,0-.1.2-.3.3-.8.2-.5.3-1.1.3-1.8,0-.2,0-.5,0-.7,0-.3-.2-1-.7-1.7-.2-.3-.4-.4-.6-.6-.6-.5-1.4-1.2-2.5-1.9-.3-.2-.6-.4-.7-.4-2.7-.9-4.8-2.8-6.9-4.6-1.2-1.1-2.3-2.4-3.1-3.8-2.5-3.7-4.6-7.7-4.9-12.4-.1-1.8-.2-4.5,1.3-7.4,1.8-3.5,4.8-5.2,7.1-6.5,1.1-.6,3.3-1.8,6.3-2.4,2.4-.4,4.3-.3,7.5,0,1,0,2.7.2,4.9.6,2.1.4,4.9,1,8.2,2.3,2.6,1,4.9,2.4,6.9,4.2,1.9,1.7,3.3,3.7,4,6.3.8,2.7.3,5.2-.3,7.8Z"/>
        <path d="M195.1,202.5c0,.7-.1,1.5-1,1.5-.8,0-1-.7-1.1-1.5,0-.4,0-.8-.1-1.3-.2-1.3-.5-1.4-1.6-.7-.6.3-1.2.7-1.7,1.1-.9.7-1.9.5-2.9.1-3-1.2-5-3.3-5.8-6.5-.6-2.5,1-6.2,3.3-7.3,2.1-1.1,5.2-.3,7.1,1.7,2.8,2.8,3.3,6.4,3.6,10.1,0,1,.5,2,.1,2.9Z"/>
        <path d="M209.4,203.7c-1.1,0-1.8-.6-2.3-1.5-.2-.5-.7-.8-1.2-.8-.6,0-.7.7-.9,1.1-.1.3-.2.6-.3,1-.2.7-.5,1.5-1.4,1.3-.9-.2-.8-1.1-.6-1.8.2-1,.5-2,.8-2.9.7-2.2,1.7-4.2,2.9-6.2,1.3-2.1,3.2-3.2,5.2-3.9,1.9-.6,4,0,5.3,1.6,1.4,1.8,2.4,3.9,1.4,6.2-.8,2.1-1.8,4.1-3.9,5.4-1.7,1-3.3.7-5,.7Z"/>
      </g>
      <path class="cls-1" d="M170.6,229.9c7.7,1.8,16.5,3.1,26.1,3.5,15.5.6,28.6-1.4,38.3-3.7"/>
      <path class="cls-1" d="M198.1,210s-3,20.5-1.4,23.5"/>
      <path class="cls-4" d="M248.5,207.9c-1.4,1-10.3,7.1-11.7,18.6-1.2,9.7,3.3,19.6,11.7,25.5"/>
      <path class="cls-4" d="M156.6,207.9c1.4,1,10.3,7.1,11.7,18.6,1.2,9.7-3.3,19.6-11.7,25.5"/>
      <path class="cls-6" d="M143.2,199.1c1.8-11.4-4.3-21.8-13.4-24.8-9.4-3.1-17.9,3.2-18.7,3.8"/>
      <path class="cls-8" d="M82.9,180.3c-9.7,6.3-13.2,17.9-9.4,26.5,4,9,14.4,11.1,15.4,11.2"/>
      <path class="cls-9" d="M313.5,207.4c-4.9-15.8-19.4-25.3-32.9-23.3-14,2-20.9,15.5-21.6,16.8"/>
      <path class="cls-9" d="M88.7,221c-2.8,16.3,5.8,31.3,18.7,35.8,13.4,4.6,25.7-4.3,26.9-5.1"/>
      <path class="cls-10" d="M267.1,268.8c14.7,7.6,31.6,4.1,39.7-6.9,8.4-11.4,3.8-25.8,3.3-27.1"/>
    </g>
  </g>
</svg>