<svg width="100" height="93" viewBox="0 0 100 93" fill="none" xmlns="http://www.w3.org/2000/svg">
<g clip-path="url(#clip0_9_396)">
<path d="M31.7326 82.2061C29.6186 65.1627 28.3107 48.0368 27.7307 30.873C27.6008 27.0146 21.5999 26.9688 21.7298 30.8272C22.3222 48.5144 23.7356 66.1449 25.9154 83.7041C26.3925 87.5244 32.1985 85.9868 31.7326 82.2061Z" fill="#374A99"/>
<path d="M17.6177 54.517C20.9872 46.352 24.5591 38.2784 28.3061 30.2886L23.1053 30.2904C26.6638 36.7227 30.9428 42.6024 35.9326 47.9929C38.5518 50.8243 42.7794 46.5606 40.1552 43.7205C35.5186 38.7037 31.619 33.2633 28.3073 27.3006C27.2669 25.4302 24.0787 25.2211 23.1065 27.3024C19.1275 35.7715 15.3856 44.312 11.8201 52.9587C10.3518 56.5247 16.1567 58.0557 17.609 54.522L17.6177 54.517Z" fill="#374A99"/>
<path d="M97.1265 48.485C85.0312 40.7655 72.9445 33.041 60.8491 25.3215C57.593 23.2484 54.6118 28.4566 57.8679 30.5298C69.9633 38.2493 82.05 45.9738 94.1453 53.6933C97.4014 55.7664 100.383 50.5582 97.1265 48.485Z" fill="#374A99"/>
<path d="M70.8413 47.1218C67.5599 39.9074 64.4495 32.6294 61.5089 25.2653L57.823 28.9063C64.2644 30.5212 70.7684 31.3621 77.4107 31.4199C81.2781 31.4462 81.3153 25.4503 77.4564 25.419C71.3166 25.3723 65.3461 24.6169 59.3862 23.1174C57.4178 22.6224 54.8204 24.5651 55.7003 26.7583C58.8307 34.6131 62.1408 42.3992 65.643 50.098C67.2357 53.6116 72.4364 50.5995 70.845 47.1081L70.8413 47.1218Z" fill="#374A99"/>
</g>
<defs>
<clipPath id="clip0_9_396">
<rect width="79.9" height="60.25" fill="white" transform="translate(0.413269 39.8147) rotate(-29.888)"/>
</clipPath>
</defs>
</svg>
