<svg width="56" height="52" viewBox="0 0 56 52" fill="none" xmlns="http://www.w3.org/2000/svg">
<g clip-path="url(#clip0_9_387)">
<path d="M37.73 30.22C28.28 20.45 18.84 10.68 9.39999 0.910003C6.70999 -1.87 2.46999 2.37 5.15999 5.15C14.6 14.92 24.04 24.69 33.48 34.46C36.17 37.24 40.41 33 37.72 30.22H37.73Z" fill="#374A99"/>
<path d="M55.13 30.41C55.42 21.93 55.71 13.45 56 4.97C56.13 1.11 50.13 1.11 50 4.97C49.71 13.45 49.42 21.93 49.13 30.41C49 34.27 55 34.27 55.13 30.41Z" fill="#374A99"/>
<path d="M28.34 45.84C19.86 45.55 11.38 45.26 2.9 44.97C-0.959995 44.84 -0.959995 50.84 2.9 50.97C11.38 51.26 19.86 51.55 28.34 51.84C32.2 51.97 32.2 45.97 28.34 45.84Z" fill="#374A99"/>
</g>
<defs>
<clipPath id="clip0_9_387">
<rect width="56.01" height="51.85" fill="white"/>
</clipPath>
</defs>
</svg>
